<svg width="396" height="434" viewBox="0 0 396 434" fill="none" xmlns="http://www.w3.org/2000/svg">
<line x1="197.5" y1="164" x2="197.5" y2="93" stroke="#111279" stroke-dasharray="2 2"/>
<line x1="197.5" y1="371" x2="197.5" y2="300" stroke="#111279" stroke-dasharray="2 2"/>
<line x1="168.603" y1="164.304" x2="112.603" y2="91.3043" stroke="#111279" stroke-dasharray="2 2"/>
<line y1="-0.5" x2="92.0054" y2="-0.5" transform="matrix(-0.608659 0.793432 0.793432 0.608659 289 91)" stroke="#111279" stroke-dasharray="2 2"/>
<circle cx="140.652" cy="127.652" r="15.6522" fill="white"/>
<path d="M145.217 127H136.087C135.367 127 134.783 127.584 134.783 128.304V132.87C134.783 133.59 135.367 134.174 136.087 134.174H145.217C145.938 134.174 146.522 133.59 146.522 132.87V128.304C146.522 127.584 145.938 127 145.217 127Z" stroke="#59C3C3" stroke-linecap="round" stroke-linejoin="round"/>
<path d="M137.392 127V124.391C137.392 123.527 137.735 122.697 138.347 122.086C138.958 121.474 139.788 121.131 140.652 121.131C141.517 121.131 142.347 121.474 142.958 122.086C143.57 122.697 143.913 123.527 143.913 124.391V127" stroke="#59C3C3" stroke-linecap="round" stroke-linejoin="round"/>
<circle cx="197.652" cy="127.652" r="15.6522" fill="white"/>
<path d="M202.217 127H193.087C192.367 127 191.783 127.584 191.783 128.304V132.87C191.783 133.59 192.367 134.174 193.087 134.174H202.217C202.938 134.174 203.522 133.59 203.522 132.87V128.304C203.522 127.584 202.938 127 202.217 127Z" stroke="#59C3C3" stroke-linecap="round" stroke-linejoin="round"/>
<path d="M194.392 127V124.391C194.392 123.527 194.735 122.697 195.347 122.086C195.958 121.474 196.788 121.131 197.652 121.131C198.517 121.131 199.347 121.474 199.958 122.086C200.57 122.697 200.913 123.527 200.913 124.391V127" stroke="#59C3C3" stroke-linecap="round" stroke-linejoin="round"/>
<circle cx="197.652" cy="334.652" r="15.6522" fill="white"/>
<path d="M202.217 334H193.087C192.367 334 191.783 334.584 191.783 335.304V339.87C191.783 340.59 192.367 341.174 193.087 341.174H202.217C202.938 341.174 203.522 340.59 203.522 339.87V335.304C203.522 334.584 202.938 334 202.217 334Z" stroke="#59C3C3" stroke-linecap="round" stroke-linejoin="round"/>
<path d="M194.392 334V331.391C194.392 330.527 194.735 329.697 195.347 329.086C195.958 328.474 196.788 328.131 197.652 328.131C198.517 328.131 199.347 328.474 199.958 329.086C200.57 329.697 200.913 330.527 200.913 331.391V334" stroke="#59C3C3" stroke-linecap="round" stroke-linejoin="round"/>
<circle cx="260.652" cy="127.652" r="15.6522" fill="white"/>
<path d="M265.217 127H256.087C255.367 127 254.783 127.584 254.783 128.304V132.87C254.783 133.59 255.367 134.174 256.087 134.174H265.217C265.938 134.174 266.522 133.59 266.522 132.87V128.304C266.522 127.584 265.938 127 265.217 127Z" stroke="#59C3C3" stroke-linecap="round" stroke-linejoin="round"/>
<path d="M257.392 127V124.391C257.392 123.527 257.735 122.697 258.347 122.086C258.958 121.474 259.788 121.131 260.652 121.131C261.517 121.131 262.347 121.474 262.958 122.086C263.57 122.697 263.913 123.527 263.913 124.391V127" stroke="#59C3C3" stroke-linecap="round" stroke-linejoin="round"/>
<path d="M197.5 175.219L171.25 189.479C171.25 189.479 166.935 233.188 197.5 244.781C228.049 233.188 223.75 189.512 223.75 189.512L197.5 175.219Z" fill="white" stroke="#03045E" stroke-linecap="round" stroke-linejoin="round"/>
<path d="M192.463 210L199.288 206.025C199.344 205.991 199.391 205.942 199.422 205.884C199.454 205.826 199.47 205.76 199.469 205.694V200.245C199.473 200.175 199.458 200.106 199.426 200.044C199.394 199.982 199.346 199.931 199.286 199.895C199.227 199.859 199.159 199.84 199.09 199.841C199.021 199.841 198.954 199.86 198.895 199.897L182.292 209.569C182.234 209.605 182.186 209.655 182.153 209.714C182.12 209.774 182.103 209.841 182.103 209.909C182.103 209.977 182.12 210.044 182.153 210.104C182.186 210.163 182.234 210.213 182.292 210.249L186.902 212.932C186.962 212.965 187.03 212.982 187.099 212.982C187.167 212.982 187.235 212.965 187.295 212.932L192.463 210Z" fill="#59C3C3"/>
<path d="M201.585 198.406C201.522 198.439 201.47 198.489 201.435 198.551C201.4 198.612 201.384 198.683 201.388 198.754V214.505C201.389 214.575 201.371 214.644 201.337 214.705C201.302 214.766 201.253 214.817 201.193 214.852C201.133 214.887 201.065 214.906 200.995 214.906C200.926 214.906 200.858 214.888 200.797 214.853L194.58 211.226C194.522 211.194 194.457 211.177 194.391 211.177C194.325 211.177 194.26 211.194 194.202 211.226L189.608 213.909C189.551 213.944 189.503 213.994 189.47 214.054C189.437 214.113 189.419 214.18 189.419 214.248C189.419 214.317 189.437 214.384 189.47 214.443C189.503 214.503 189.551 214.552 189.608 214.588L206.179 224.244C206.236 224.279 206.302 224.299 206.37 224.3C206.438 224.301 206.504 224.284 206.563 224.25C206.622 224.216 206.67 224.167 206.704 224.107C206.737 224.048 206.754 223.981 206.753 223.913V195.988C206.752 195.921 206.734 195.854 206.701 195.795C206.667 195.737 206.619 195.688 206.562 195.653C206.504 195.618 206.439 195.599 206.372 195.596C206.305 195.594 206.238 195.609 206.179 195.64L201.585 198.406Z" fill="#59C3C3"/>
<circle cx="235.261" cy="254.652" r="15.6522" fill="#59C3C3"/>
<path d="M228.739 254.652C228.739 251.065 231.674 248.131 235.261 248.131C236.273 248.131 237.272 248.366 238.177 248.819C239.083 249.272 239.87 249.929 240.478 250.739" stroke="#111279" stroke-linecap="round" stroke-linejoin="round"/>
<path d="M230.695 259.544C231.021 258.565 231.347 256.609 231.347 254.652C231.347 254.196 231.426 253.759 231.569 253.348" stroke="#111279" stroke-linecap="round" stroke-linejoin="round"/>
<path d="M238.71 260.535C238.789 260.143 238.991 259.035 239.037 258.565" stroke="#111279" stroke-linecap="round" stroke-linejoin="round"/>
<path d="M235.261 253.348C234.915 253.348 234.583 253.485 234.338 253.73C234.094 253.975 233.956 254.306 233.956 254.652C233.956 255.317 233.891 256.289 233.787 257.261" stroke="#111279" stroke-linecap="round" stroke-linejoin="round"/>
<path d="M233.076 261.174C233.213 260.744 233.369 260.313 233.447 259.87" stroke="#111279" stroke-linecap="round" stroke-linejoin="round"/>
<path d="M236.565 255.383C236.565 256.935 236.565 259.544 235.913 261.174" stroke="#111279" stroke-linecap="round" stroke-linejoin="round"/>
<path d="M228.739 257.261H228.746" stroke="#111279" stroke-linecap="round" stroke-linejoin="round"/>
<path d="M241.652 257.261C241.782 255.957 241.737 253.769 241.652 253.348" stroke="#111279" stroke-linecap="round" stroke-linejoin="round"/>
<path d="M233.304 251.261C233.899 250.918 234.574 250.737 235.261 250.737C235.948 250.737 236.623 250.918 237.218 251.262C237.813 251.605 238.307 252.1 238.65 252.695C238.994 253.29 239.174 253.965 239.174 254.652C239.174 254.959 239.174 255.415 239.161 255.957" stroke="#111279" stroke-linecap="round" stroke-linejoin="round"/>
<circle cx="162.652" cy="254.652" r="15.6522" fill="#59C3C3"/>
<path d="M167.87 257.261V251.392C167.87 251.046 167.732 250.714 167.488 250.469C167.243 250.225 166.911 250.087 166.565 250.087H158.739C158.393 250.087 158.061 250.225 157.817 250.469C157.572 250.714 157.435 251.046 157.435 251.392V257.261M167.87 257.261H157.435M167.87 257.261L168.704 258.924C168.755 259.024 168.778 259.135 168.774 259.247C168.769 259.358 168.735 259.467 168.676 259.562C168.617 259.656 168.535 259.735 168.437 259.789C168.339 259.843 168.229 259.871 168.117 259.87H157.187C157.075 259.871 156.965 259.843 156.867 259.789C156.77 259.735 156.687 259.656 156.628 259.562C156.569 259.467 156.536 259.358 156.531 259.247C156.526 259.135 156.55 259.024 156.6 258.924L157.435 257.261" stroke="#111279" stroke-linecap="round" stroke-linejoin="round"/>
<circle cx="198.956" cy="270.652" r="15.6522" fill="#59C3C3"/>
<path d="M203.522 270H194.391C193.671 270 193.087 270.584 193.087 271.304V275.869C193.087 276.59 193.671 277.174 194.391 277.174H203.522C204.242 277.174 204.826 276.59 204.826 275.869V271.304C204.826 270.584 204.242 270 203.522 270Z" stroke="#111279" stroke-linecap="round" stroke-linejoin="round"/>
<path d="M195.696 270V267.391C195.695 266.582 195.995 265.802 196.537 265.202C197.079 264.602 197.824 264.225 198.629 264.143C199.434 264.062 200.24 264.283 200.891 264.762C201.542 265.242 201.991 265.946 202.152 266.739" stroke="#111279" stroke-linecap="round" stroke-linejoin="round"/>
<rect y="58" width="115" height="35" rx="5" fill="white"/>
<path d="M17.8992 71.588C19.0192 71.588 19.8832 71.848 20.4912 72.368C21.0992 72.88 21.4032 73.604 21.4032 74.54C21.4032 75.524 21.0992 76.292 20.4912 76.844C19.8832 77.388 19.0192 77.66 17.8992 77.66H16.3152V80H14.1192V71.588H17.8992ZM17.8992 75.932C18.3552 75.932 18.7032 75.82 18.9432 75.596C19.1912 75.372 19.3152 75.04 19.3152 74.6C19.3152 74.176 19.1912 73.856 18.9432 73.64C18.7032 73.424 18.3552 73.316 17.8992 73.316H16.3152V75.932H17.8992ZM17.5152 76.856H19.6512L21.6552 80H19.1712L17.5152 76.856ZM27.2308 76.196C27.2388 75.932 27.1908 75.708 27.0868 75.524C26.9908 75.332 26.8508 75.184 26.6668 75.08C26.4828 74.976 26.2708 74.924 26.0308 74.924C25.7508 74.924 25.5108 75 25.3108 75.152C25.1188 75.296 24.9668 75.5 24.8548 75.764C24.7508 76.02 24.6988 76.32 24.6988 76.664C24.6988 77.04 24.7628 77.364 24.8908 77.636C25.0188 77.908 25.1988 78.12 25.4308 78.272C25.6708 78.416 25.9468 78.488 26.2588 78.488C26.8348 78.488 27.3428 78.268 27.7828 77.828L28.8988 78.932C28.5708 79.292 28.1668 79.572 27.6868 79.772C27.2148 79.972 26.6748 80.072 26.0668 80.072C25.3628 80.072 24.7508 79.936 24.2308 79.664C23.7188 79.392 23.3228 79.008 23.0428 78.512C22.7708 78.016 22.6348 77.44 22.6348 76.784C22.6348 76.112 22.7748 75.528 23.0548 75.032C23.3348 74.528 23.7308 74.14 24.2428 73.868C24.7548 73.588 25.3468 73.448 26.0188 73.448C26.7788 73.448 27.4068 73.608 27.9028 73.928C28.4068 74.24 28.7748 74.688 29.0068 75.272C29.2468 75.856 29.3428 76.54 29.2948 77.324H24.3988V76.196H27.2308ZM35.1813 76.508C35.1813 76.132 35.0853 75.84 34.8933 75.632C34.7013 75.416 34.4413 75.308 34.1133 75.308C33.7373 75.316 33.4373 75.46 33.2133 75.74C32.9893 76.012 32.8773 76.364 32.8773 76.796H32.3733C32.3733 76.06 32.4773 75.444 32.6853 74.948C32.9013 74.444 33.2053 74.064 33.5973 73.808C33.9893 73.552 34.4533 73.424 34.9893 73.424C35.4613 73.424 35.8693 73.528 36.2133 73.736C36.5653 73.936 36.8373 74.224 37.0293 74.6C37.2213 74.968 37.3173 75.404 37.3173 75.908V80H35.1813V76.508ZM39.6093 76.508C39.6093 76.132 39.5133 75.84 39.3213 75.632C39.1293 75.416 38.8693 75.308 38.5413 75.308C38.1653 75.316 37.8653 75.46 37.6413 75.74C37.4253 76.012 37.3173 76.364 37.3173 76.796H36.8013C36.8013 76.06 36.9053 75.444 37.1133 74.948C37.3293 74.444 37.6333 74.064 38.0253 73.808C38.4173 73.552 38.8813 73.424 39.4173 73.424C39.8893 73.424 40.2973 73.528 40.6413 73.736C40.9933 73.936 41.2653 74.224 41.4573 74.6C41.6493 74.968 41.7453 75.404 41.7453 75.908V80H39.6093V76.508ZM30.7533 73.52H32.8773V80H30.7533V73.52ZM46.5706 73.448C47.2826 73.448 47.9026 73.584 48.4306 73.856C48.9666 74.128 49.3826 74.512 49.6786 75.008C49.9746 75.504 50.1226 76.084 50.1226 76.748C50.1226 77.412 49.9746 77.996 49.6786 78.5C49.3826 78.996 48.9666 79.384 48.4306 79.664C47.9026 79.936 47.2826 80.072 46.5706 80.072C45.8586 80.072 45.2346 79.936 44.6986 79.664C44.1706 79.384 43.7586 78.996 43.4626 78.5C43.1746 77.996 43.0306 77.412 43.0306 76.748C43.0306 76.084 43.1746 75.504 43.4626 75.008C43.7586 74.512 44.1706 74.128 44.6986 73.856C45.2346 73.584 45.8586 73.448 46.5706 73.448ZM46.5706 75.14C46.2906 75.14 46.0466 75.208 45.8386 75.344C45.6306 75.48 45.4666 75.672 45.3466 75.92C45.2346 76.168 45.1786 76.456 45.1786 76.784C45.1786 77.112 45.2346 77.4 45.3466 77.648C45.4666 77.888 45.6306 78.076 45.8386 78.212C46.0466 78.348 46.2906 78.416 46.5706 78.416C46.8506 78.416 47.0946 78.348 47.3026 78.212C47.5186 78.076 47.6826 77.888 47.7946 77.648C47.9146 77.4 47.9746 77.112 47.9746 76.784C47.9746 76.456 47.9146 76.168 47.7946 75.92C47.6826 75.672 47.5186 75.48 47.3026 75.344C47.0946 75.208 46.8506 75.14 46.5706 75.14ZM53.9949 77.696C53.9949 77.944 54.0469 78.124 54.1509 78.236C54.2549 78.348 54.3989 78.4 54.5829 78.392C54.6949 78.392 54.8189 78.372 54.9549 78.332C55.0909 78.292 55.2349 78.24 55.3869 78.176L55.7949 79.652C55.5629 79.796 55.2909 79.908 54.9789 79.988C54.6749 80.06 54.3629 80.096 54.0429 80.096C53.6269 80.096 53.2549 80.02 52.9269 79.868C52.5989 79.708 52.3389 79.476 52.1469 79.172C51.9629 78.86 51.8709 78.48 51.8709 78.032V72.032H53.9949V77.696ZM50.9709 73.82H55.6749V75.212H50.9709V73.82ZM61.202 76.196C61.21 75.932 61.162 75.708 61.058 75.524C60.962 75.332 60.822 75.184 60.638 75.08C60.454 74.976 60.242 74.924 60.002 74.924C59.722 74.924 59.482 75 59.282 75.152C59.09 75.296 58.938 75.5 58.826 75.764C58.722 76.02 58.67 76.32 58.67 76.664C58.67 77.04 58.734 77.364 58.862 77.636C58.99 77.908 59.17 78.12 59.402 78.272C59.642 78.416 59.918 78.488 60.23 78.488C60.806 78.488 61.314 78.268 61.754 77.828L62.87 78.932C62.542 79.292 62.138 79.572 61.658 79.772C61.186 79.972 60.646 80.072 60.038 80.072C59.334 80.072 58.722 79.936 58.202 79.664C57.69 79.392 57.294 79.008 57.014 78.512C56.742 78.016 56.606 77.44 56.606 76.784C56.606 76.112 56.746 75.528 57.026 75.032C57.306 74.528 57.702 74.14 58.214 73.868C58.726 73.588 59.318 73.448 59.99 73.448C60.75 73.448 61.378 73.608 61.874 73.928C62.378 74.24 62.746 74.688 62.978 75.272C63.218 75.856 63.314 76.54 63.266 77.324H58.37V76.196H61.202ZM70.2629 77.012C70.2629 77.38 70.3549 77.672 70.5389 77.888C70.7309 78.104 70.9869 78.212 71.3069 78.212C71.6909 78.204 71.9869 78.06 72.1949 77.78C72.4109 77.5 72.5189 77.148 72.5189 76.724H73.0229C73.0229 77.452 72.9189 78.068 72.7109 78.572C72.5029 79.068 72.2069 79.444 71.8229 79.7C71.4389 79.956 70.9789 80.084 70.4429 80.084C69.9789 80.084 69.5709 79.984 69.2189 79.784C68.8749 79.576 68.6069 79.288 68.4149 78.92C68.2229 78.552 68.1269 78.116 68.1269 77.612V73.52H70.2629V77.012ZM72.5189 73.52H74.6549V80H72.5189V73.52ZM80.9796 75.536C80.5796 75.328 80.2036 75.168 79.8516 75.056C79.4996 74.944 79.1876 74.888 78.9156 74.888C78.7396 74.888 78.5916 74.924 78.4716 74.996C78.3596 75.06 78.3036 75.164 78.3036 75.308C78.3036 75.452 78.3836 75.568 78.5436 75.656C78.7116 75.736 78.9236 75.816 79.1796 75.896C79.4436 75.968 79.7196 76.048 80.0076 76.136C80.2956 76.224 80.5676 76.344 80.8236 76.496C81.0876 76.64 81.2996 76.836 81.4596 77.084C81.6196 77.324 81.6996 77.632 81.6996 78.008C81.6996 78.448 81.5796 78.824 81.3396 79.136C81.1076 79.448 80.7836 79.684 80.3676 79.844C79.9596 80.004 79.4876 80.084 78.9516 80.084C78.4076 80.084 77.8836 80.008 77.3796 79.856C76.8756 79.704 76.4236 79.476 76.0236 79.172L76.6956 77.816C77.0716 78.072 77.4596 78.272 77.8596 78.416C78.2596 78.552 78.6396 78.62 78.9996 78.62C79.1356 78.62 79.2516 78.604 79.3476 78.572C79.4516 78.54 79.5316 78.496 79.5876 78.44C79.6516 78.376 79.6836 78.296 79.6836 78.2C79.6836 78.048 79.6036 77.928 79.4436 77.84C79.2836 77.744 79.0756 77.664 78.8196 77.6C78.5636 77.528 78.2916 77.448 78.0036 77.36C77.7156 77.272 77.4436 77.156 77.1876 77.012C76.9396 76.86 76.7356 76.664 76.5756 76.424C76.4156 76.184 76.3356 75.876 76.3356 75.5C76.3356 75.052 76.4516 74.676 76.6836 74.372C76.9236 74.06 77.2396 73.824 77.6316 73.664C78.0316 73.504 78.4876 73.424 78.9996 73.424C79.4716 73.424 79.9396 73.488 80.4036 73.616C80.8676 73.736 81.2996 73.92 81.6996 74.168L80.9796 75.536ZM87.2749 76.196C87.2829 75.932 87.2349 75.708 87.1309 75.524C87.0349 75.332 86.8949 75.184 86.7109 75.08C86.5269 74.976 86.3149 74.924 86.0749 74.924C85.7949 74.924 85.5549 75 85.3549 75.152C85.1629 75.296 85.0109 75.5 84.8989 75.764C84.7949 76.02 84.7429 76.32 84.7429 76.664C84.7429 77.04 84.8069 77.364 84.9349 77.636C85.0629 77.908 85.2429 78.12 85.4749 78.272C85.7149 78.416 85.9909 78.488 86.3029 78.488C86.8789 78.488 87.3869 78.268 87.8269 77.828L88.9429 78.932C88.6149 79.292 88.2109 79.572 87.7309 79.772C87.2589 79.972 86.7189 80.072 86.1109 80.072C85.4069 80.072 84.7949 79.936 84.2749 79.664C83.7629 79.392 83.3669 79.008 83.0869 78.512C82.8149 78.016 82.6789 77.44 82.6789 76.784C82.6789 76.112 82.8189 75.528 83.0989 75.032C83.3789 74.528 83.7749 74.14 84.2869 73.868C84.7989 73.588 85.3909 73.448 86.0629 73.448C86.8229 73.448 87.4509 73.608 87.9469 73.928C88.4509 74.24 88.8189 74.688 89.0509 75.272C89.2909 75.856 89.3869 76.54 89.3389 77.324H84.4429V76.196H87.2749ZM95.0213 75.356C94.5973 75.308 94.2253 75.344 93.9053 75.464C93.5933 75.584 93.3493 75.768 93.1733 76.016C93.0053 76.256 92.9213 76.548 92.9213 76.892L92.4173 76.796C92.4173 76.092 92.5213 75.488 92.7293 74.984C92.9453 74.48 93.2493 74.096 93.6413 73.832C94.0333 73.56 94.4933 73.424 95.0213 73.424V75.356ZM90.7973 73.52H92.9333V80H90.7973V73.52ZM100.646 75.536C100.246 75.328 99.8696 75.168 99.5176 75.056C99.1656 74.944 98.8536 74.888 98.5816 74.888C98.4056 74.888 98.2576 74.924 98.1376 74.996C98.0256 75.06 97.9696 75.164 97.9696 75.308C97.9696 75.452 98.0496 75.568 98.2096 75.656C98.3776 75.736 98.5896 75.816 98.8456 75.896C99.1096 75.968 99.3856 76.048 99.6736 76.136C99.9616 76.224 100.234 76.344 100.49 76.496C100.754 76.64 100.966 76.836 101.126 77.084C101.286 77.324 101.366 77.632 101.366 78.008C101.366 78.448 101.246 78.824 101.006 79.136C100.774 79.448 100.45 79.684 100.034 79.844C99.6256 80.004 99.1536 80.084 98.6176 80.084C98.0736 80.084 97.5496 80.008 97.0456 79.856C96.5416 79.704 96.0896 79.476 95.6896 79.172L96.3616 77.816C96.7376 78.072 97.1256 78.272 97.5256 78.416C97.9256 78.552 98.3056 78.62 98.6656 78.62C98.8016 78.62 98.9176 78.604 99.0136 78.572C99.1176 78.54 99.1976 78.496 99.2536 78.44C99.3176 78.376 99.3496 78.296 99.3496 78.2C99.3496 78.048 99.2696 77.928 99.1096 77.84C98.9496 77.744 98.7416 77.664 98.4856 77.6C98.2296 77.528 97.9576 77.448 97.6696 77.36C97.3816 77.272 97.1096 77.156 96.8536 77.012C96.6056 76.86 96.4016 76.664 96.2416 76.424C96.0816 76.184 96.0016 75.876 96.0016 75.5C96.0016 75.052 96.1176 74.676 96.3496 74.372C96.5896 74.06 96.9056 73.824 97.2976 73.664C97.6976 73.504 98.1536 73.424 98.6656 73.424C99.1376 73.424 99.6056 73.488 100.07 73.616C100.534 73.736 100.966 73.92 101.366 74.168L100.646 75.536Z" fill="#03045E"/>
<path d="M73.4277 21H41.094C40.5011 21 40.0205 21.4806 40.0205 22.0735V44.166C40.0205 44.7589 40.5011 45.2395 41.094 45.2395H73.4277C74.0206 45.2395 74.5012 44.7589 74.5012 44.166V22.0735C74.5012 21.4806 74.0206 21 73.4277 21Z" stroke="#03045E" stroke-linecap="round" stroke-linejoin="round"/>
<path d="M33 59.0554H81.522V61.4278C81.522 61.7126 81.4089 61.9856 81.2076 62.1869C81.0063 62.3882 80.7332 62.5013 80.4485 62.5013H34.0735C33.7888 62.5013 33.5157 62.3882 33.3144 62.1869C33.1131 61.9856 33 61.7126 33 61.4278V59.0554Z" stroke="#03045E" stroke-linecap="round" stroke-linejoin="round"/>
<path d="M81.5113 59.0447H33.0107L39.6772 45.8407C39.7664 45.6636 39.9028 45.5148 40.0715 45.4105C40.2401 45.3063 40.4343 45.2508 40.6326 45.2502H73.7928C73.9911 45.2508 74.1853 45.3063 74.3539 45.4105C74.5226 45.5148 74.659 45.6636 74.7483 45.8407L81.5113 59.0447Z" stroke="#03045E" stroke-linecap="round" stroke-linejoin="round"/>
<path d="M72.7193 51.4122H41.7597C41.5773 51.4125 41.3978 51.3664 41.2381 51.2781C41.0785 51.1898 40.9439 51.0623 40.8473 50.9076C40.7506 50.7529 40.6949 50.5761 40.6855 50.3939C40.6761 50.2117 40.7133 50.0301 40.7936 49.8663L43.0265 45.3147H71.3238L73.6748 49.8449C73.7596 50.0087 73.8008 50.1916 73.7944 50.3759C73.788 50.5603 73.7342 50.7399 73.6382 50.8974C73.5422 51.0549 73.4072 51.1851 73.2462 51.2752C73.0853 51.3654 72.9038 51.4125 72.7193 51.4122Z" fill="white" stroke="#03045E" stroke-linecap="round" stroke-linejoin="round"/>
<path d="M62.2313 56.5756H52.2478C52.1575 56.5746 52.0687 56.5526 51.9884 56.5112C51.9082 56.4698 51.8387 56.4103 51.7855 56.3373C51.7323 56.2643 51.6969 56.1799 51.6821 56.0908C51.6674 56.0017 51.6736 55.9104 51.7004 55.8241L52.2156 54.289C52.2524 54.173 52.3254 54.0718 52.4239 54.0003C52.5225 53.9288 52.6414 53.8908 52.7631 53.8919H61.6409C61.7591 53.8869 61.8758 53.9195 61.9742 53.9851C62.0726 54.0507 62.1476 54.1459 62.1884 54.2568L62.7788 55.8349C62.8036 55.9205 62.8083 56.0106 62.7926 56.0983C62.7768 56.186 62.7411 56.2689 62.6881 56.3405C62.6352 56.4122 62.5664 56.4707 62.4872 56.5114C62.408 56.5522 62.3204 56.5742 62.2313 56.5756Z" fill="#59C3C3" stroke="#59C3C3" stroke-linecap="round" stroke-linejoin="round"/>
<rect x="145" y="58" width="111" height="35" rx="5" fill="white"/>
<path d="M162.857 71.456C163.513 71.456 164.113 71.564 164.657 71.78C165.209 71.996 165.689 72.3 166.097 72.692C166.513 73.084 166.833 73.544 167.057 74.072C167.289 74.592 167.405 75.16 167.405 75.776C167.405 76.4 167.289 76.98 167.057 77.516C166.833 78.044 166.513 78.508 166.097 78.908C165.689 79.3 165.209 79.608 164.657 79.832C164.113 80.048 163.513 80.156 162.857 80.156C162.209 80.156 161.609 80.048 161.057 79.832C160.505 79.608 160.021 79.3 159.605 78.908C159.197 78.508 158.877 78.044 158.645 77.516C158.421 76.98 158.309 76.4 158.309 75.776C158.309 75.16 158.421 74.588 158.645 74.06C158.877 73.532 159.197 73.076 159.605 72.692C160.021 72.3 160.505 71.996 161.057 71.78C161.609 71.564 162.209 71.456 162.857 71.456ZM162.881 73.292C162.569 73.292 162.269 73.356 161.981 73.484C161.701 73.604 161.453 73.78 161.237 74.012C161.029 74.236 160.865 74.5 160.745 74.804C160.625 75.1 160.565 75.428 160.565 75.788C160.565 76.14 160.625 76.472 160.745 76.784C160.865 77.088 161.033 77.356 161.249 77.588C161.465 77.812 161.713 77.988 161.993 78.116C162.273 78.244 162.569 78.308 162.881 78.308C163.193 78.308 163.485 78.244 163.757 78.116C164.037 77.988 164.281 77.812 164.489 77.588C164.697 77.356 164.857 77.088 164.969 76.784C165.089 76.472 165.149 76.14 165.149 75.788C165.149 75.428 165.089 75.1 164.969 74.804C164.857 74.5 164.697 74.236 164.489 74.012C164.281 73.78 164.037 73.604 163.757 73.484C163.485 73.356 163.193 73.292 162.881 73.292ZM173.366 76.508C173.366 76.14 173.266 75.848 173.066 75.632C172.866 75.416 172.598 75.308 172.262 75.308C171.862 75.316 171.546 75.46 171.314 75.74C171.09 76.012 170.978 76.364 170.978 76.796H170.474C170.474 76.06 170.582 75.444 170.798 74.948C171.014 74.444 171.318 74.064 171.71 73.808C172.11 73.552 172.586 73.424 173.138 73.424C173.61 73.424 174.022 73.528 174.374 73.736C174.734 73.936 175.01 74.224 175.202 74.6C175.394 74.968 175.49 75.404 175.49 75.908V80H173.366V76.508ZM168.854 73.52H170.99V80H168.854V73.52ZM177.144 75.644H180.324V76.988H177.144V75.644ZM186.492 75.536C186.092 75.328 185.716 75.168 185.364 75.056C185.012 74.944 184.7 74.888 184.428 74.888C184.252 74.888 184.104 74.924 183.984 74.996C183.872 75.06 183.816 75.164 183.816 75.308C183.816 75.452 183.896 75.568 184.056 75.656C184.224 75.736 184.436 75.816 184.692 75.896C184.956 75.968 185.232 76.048 185.52 76.136C185.808 76.224 186.08 76.344 186.336 76.496C186.6 76.64 186.812 76.836 186.972 77.084C187.132 77.324 187.212 77.632 187.212 78.008C187.212 78.448 187.092 78.824 186.852 79.136C186.62 79.448 186.296 79.684 185.88 79.844C185.472 80.004 185 80.084 184.464 80.084C183.92 80.084 183.396 80.008 182.892 79.856C182.388 79.704 181.936 79.476 181.536 79.172L182.208 77.816C182.584 78.072 182.972 78.272 183.372 78.416C183.772 78.552 184.152 78.62 184.512 78.62C184.648 78.62 184.764 78.604 184.86 78.572C184.964 78.54 185.044 78.496 185.1 78.44C185.164 78.376 185.196 78.296 185.196 78.2C185.196 78.048 185.116 77.928 184.956 77.84C184.796 77.744 184.588 77.664 184.332 77.6C184.076 77.528 183.804 77.448 183.516 77.36C183.228 77.272 182.956 77.156 182.7 77.012C182.452 76.86 182.248 76.664 182.088 76.424C181.928 76.184 181.848 75.876 181.848 75.5C181.848 75.052 181.964 74.676 182.196 74.372C182.436 74.06 182.752 73.824 183.144 73.664C183.544 73.504 184 73.424 184.512 73.424C184.984 73.424 185.452 73.488 185.916 73.616C186.38 73.736 186.812 73.92 187.212 74.168L186.492 75.536ZM188.719 73.52H190.843V80H188.719V73.52ZM189.787 70.544C190.115 70.544 190.383 70.652 190.591 70.868C190.807 71.076 190.915 71.344 190.915 71.672C190.915 71.992 190.807 72.26 190.591 72.476C190.383 72.684 190.115 72.788 189.787 72.788C189.459 72.788 189.187 72.684 188.971 72.476C188.763 72.26 188.659 71.992 188.659 71.672C188.659 71.344 188.763 71.076 188.971 70.868C189.187 70.652 189.459 70.544 189.787 70.544ZM195.265 77.696C195.265 77.944 195.317 78.124 195.421 78.236C195.525 78.348 195.669 78.4 195.853 78.392C195.965 78.392 196.089 78.372 196.225 78.332C196.361 78.292 196.505 78.24 196.657 78.176L197.065 79.652C196.833 79.796 196.561 79.908 196.249 79.988C195.945 80.06 195.633 80.096 195.313 80.096C194.897 80.096 194.525 80.02 194.197 79.868C193.869 79.708 193.609 79.476 193.417 79.172C193.233 78.86 193.141 78.48 193.141 78.032V72.032H195.265V77.696ZM192.241 73.82H196.945V75.212H192.241V73.82ZM202.472 76.196C202.48 75.932 202.432 75.708 202.328 75.524C202.232 75.332 202.092 75.184 201.908 75.08C201.724 74.976 201.512 74.924 201.272 74.924C200.992 74.924 200.752 75 200.552 75.152C200.36 75.296 200.208 75.5 200.096 75.764C199.992 76.02 199.94 76.32 199.94 76.664C199.94 77.04 200.004 77.364 200.132 77.636C200.26 77.908 200.44 78.12 200.672 78.272C200.912 78.416 201.188 78.488 201.5 78.488C202.076 78.488 202.584 78.268 203.024 77.828L204.14 78.932C203.812 79.292 203.408 79.572 202.928 79.772C202.456 79.972 201.916 80.072 201.308 80.072C200.604 80.072 199.992 79.936 199.472 79.664C198.96 79.392 198.564 79.008 198.284 78.512C198.012 78.016 197.876 77.44 197.876 76.784C197.876 76.112 198.016 75.528 198.296 75.032C198.576 74.528 198.972 74.14 199.484 73.868C199.996 73.588 200.588 73.448 201.26 73.448C202.02 73.448 202.648 73.608 203.144 73.928C203.648 74.24 204.016 74.688 204.248 75.272C204.488 75.856 204.584 76.54 204.536 77.324H199.64V76.196H202.472ZM211.533 77.012C211.533 77.38 211.625 77.672 211.809 77.888C212.001 78.104 212.257 78.212 212.577 78.212C212.961 78.204 213.257 78.06 213.465 77.78C213.681 77.5 213.789 77.148 213.789 76.724H214.293C214.293 77.452 214.189 78.068 213.981 78.572C213.773 79.068 213.477 79.444 213.093 79.7C212.709 79.956 212.249 80.084 211.713 80.084C211.249 80.084 210.841 79.984 210.489 79.784C210.145 79.576 209.877 79.288 209.685 78.92C209.493 78.552 209.397 78.116 209.397 77.612V73.52H211.533V77.012ZM213.789 73.52H215.925V80H213.789V73.52ZM222.249 75.536C221.849 75.328 221.473 75.168 221.121 75.056C220.769 74.944 220.457 74.888 220.185 74.888C220.009 74.888 219.861 74.924 219.741 74.996C219.629 75.06 219.573 75.164 219.573 75.308C219.573 75.452 219.653 75.568 219.813 75.656C219.981 75.736 220.193 75.816 220.449 75.896C220.713 75.968 220.989 76.048 221.277 76.136C221.565 76.224 221.837 76.344 222.093 76.496C222.357 76.64 222.569 76.836 222.729 77.084C222.889 77.324 222.969 77.632 222.969 78.008C222.969 78.448 222.849 78.824 222.609 79.136C222.377 79.448 222.053 79.684 221.637 79.844C221.229 80.004 220.757 80.084 220.221 80.084C219.677 80.084 219.153 80.008 218.649 79.856C218.145 79.704 217.693 79.476 217.293 79.172L217.965 77.816C218.341 78.072 218.729 78.272 219.129 78.416C219.529 78.552 219.909 78.62 220.269 78.62C220.405 78.62 220.521 78.604 220.617 78.572C220.721 78.54 220.801 78.496 220.857 78.44C220.921 78.376 220.953 78.296 220.953 78.2C220.953 78.048 220.873 77.928 220.713 77.84C220.553 77.744 220.345 77.664 220.089 77.6C219.833 77.528 219.561 77.448 219.273 77.36C218.985 77.272 218.713 77.156 218.457 77.012C218.209 76.86 218.005 76.664 217.845 76.424C217.685 76.184 217.605 75.876 217.605 75.5C217.605 75.052 217.721 74.676 217.953 74.372C218.193 74.06 218.509 73.824 218.901 73.664C219.301 73.504 219.757 73.424 220.269 73.424C220.741 73.424 221.209 73.488 221.673 73.616C222.137 73.736 222.569 73.92 222.969 74.168L222.249 75.536ZM228.545 76.196C228.553 75.932 228.505 75.708 228.401 75.524C228.305 75.332 228.165 75.184 227.981 75.08C227.797 74.976 227.585 74.924 227.345 74.924C227.065 74.924 226.825 75 226.625 75.152C226.433 75.296 226.281 75.5 226.169 75.764C226.065 76.02 226.013 76.32 226.013 76.664C226.013 77.04 226.077 77.364 226.205 77.636C226.333 77.908 226.513 78.12 226.745 78.272C226.985 78.416 227.261 78.488 227.573 78.488C228.149 78.488 228.657 78.268 229.097 77.828L230.213 78.932C229.885 79.292 229.481 79.572 229.001 79.772C228.529 79.972 227.989 80.072 227.381 80.072C226.677 80.072 226.065 79.936 225.545 79.664C225.033 79.392 224.637 79.008 224.357 78.512C224.085 78.016 223.949 77.44 223.949 76.784C223.949 76.112 224.089 75.528 224.369 75.032C224.649 74.528 225.045 74.14 225.557 73.868C226.069 73.588 226.661 73.448 227.333 73.448C228.093 73.448 228.721 73.608 229.217 73.928C229.721 74.24 230.089 74.688 230.321 75.272C230.561 75.856 230.657 76.54 230.609 77.324H225.713V76.196H228.545ZM236.291 75.356C235.867 75.308 235.495 75.344 235.175 75.464C234.863 75.584 234.619 75.768 234.443 76.016C234.275 76.256 234.191 76.548 234.191 76.892L233.687 76.796C233.687 76.092 233.791 75.488 233.999 74.984C234.215 74.48 234.519 74.096 234.911 73.832C235.303 73.56 235.763 73.424 236.291 73.424V75.356ZM232.067 73.52H234.203V80H232.067V73.52ZM241.915 75.536C241.515 75.328 241.139 75.168 240.787 75.056C240.435 74.944 240.123 74.888 239.851 74.888C239.675 74.888 239.527 74.924 239.407 74.996C239.295 75.06 239.239 75.164 239.239 75.308C239.239 75.452 239.319 75.568 239.479 75.656C239.647 75.736 239.859 75.816 240.115 75.896C240.379 75.968 240.655 76.048 240.943 76.136C241.231 76.224 241.503 76.344 241.759 76.496C242.023 76.64 242.235 76.836 242.395 77.084C242.555 77.324 242.635 77.632 242.635 78.008C242.635 78.448 242.515 78.824 242.275 79.136C242.043 79.448 241.719 79.684 241.303 79.844C240.895 80.004 240.423 80.084 239.887 80.084C239.343 80.084 238.819 80.008 238.315 79.856C237.811 79.704 237.359 79.476 236.959 79.172L237.631 77.816C238.007 78.072 238.395 78.272 238.795 78.416C239.195 78.552 239.575 78.62 239.935 78.62C240.071 78.62 240.187 78.604 240.283 78.572C240.387 78.54 240.467 78.496 240.523 78.44C240.587 78.376 240.619 78.296 240.619 78.2C240.619 78.048 240.539 77.928 240.379 77.84C240.219 77.744 240.011 77.664 239.755 77.6C239.499 77.528 239.227 77.448 238.939 77.36C238.651 77.272 238.379 77.156 238.123 77.012C237.875 76.86 237.671 76.664 237.511 76.424C237.351 76.184 237.271 75.876 237.271 75.5C237.271 75.052 237.387 74.676 237.619 74.372C237.859 74.06 238.175 73.824 238.567 73.664C238.967 73.504 239.423 73.424 239.935 73.424C240.407 73.424 240.875 73.488 241.339 73.616C241.803 73.736 242.235 73.92 242.635 74.168L241.915 75.536Z" fill="#03045E"/>
<g clip-path="url(#clip0_4510_7434)">
<path d="M211.22 29.46L220.47 39.48V62.66H211.22V29.46Z" fill="#DEF3F3" stroke="#03045E" stroke-linecap="round" stroke-linejoin="round"/>
<path d="M211.22 62.66H184.64V25.24L211.22 19.5V62.66Z" stroke="#03045E" stroke-linecap="round" stroke-linejoin="round"/>
<path d="M184.64 39.1699H175.5V62.6599H184.64V39.1699Z" stroke="#03045E" stroke-linecap="round" stroke-linejoin="round"/>
<path d="M192.82 30.8701H188.57V36.0801H192.82V30.8701Z" stroke="#03045E" stroke-linecap="round" stroke-linejoin="round"/>
<path d="M200.17 30.8701H195.92V36.0801H200.17V30.8701Z" stroke="#03045E" stroke-linecap="round" stroke-linejoin="round"/>
<path d="M207.39 30.8701H203.14V36.0801H207.39V30.8701Z" stroke="#03045E" stroke-linecap="round" stroke-linejoin="round"/>
<path d="M192.82 40.52H188.57V45.73H192.82V40.52Z" stroke="#03045E" stroke-linecap="round" stroke-linejoin="round"/>
<path d="M200.17 40.52H195.92V45.73H200.17V40.52Z" stroke="#03045E" stroke-linecap="round" stroke-linejoin="round"/>
<path d="M207.39 40.52H203.14V45.73H207.39V40.52Z" stroke="#03045E" stroke-linecap="round" stroke-linejoin="round"/>
<path d="M192.82 50.4099H188.57V55.6199H192.82V50.4099Z" stroke="#03045E" stroke-linecap="round" stroke-linejoin="round"/>
<path d="M200.17 50.4099H195.92V55.6199H200.17V50.4099Z" stroke="#03045E" stroke-linecap="round" stroke-linejoin="round"/>
<path d="M207.39 50.4099H203.14V55.6199H207.39V50.4099Z" stroke="#03045E" stroke-linecap="round" stroke-linejoin="round"/>
<path d="M181.37 45.1299H178.66V48.5599H181.37V45.1299Z" fill="#59C3C3" stroke="#03045E" stroke-linecap="round" stroke-linejoin="round"/>
<path d="M181.37 53.02H178.66V56.45H181.37V53.02Z" fill="#59C3C3" stroke="#03045E" stroke-linecap="round" stroke-linejoin="round"/>
</g>
<rect x="286" y="58" width="110" height="35" rx="5" fill="white"/>
<path d="M303.965 71.588C304.605 71.588 305.157 71.676 305.621 71.852C306.085 72.028 306.445 72.272 306.701 72.584C306.957 72.896 307.085 73.272 307.085 73.712C307.085 74.152 306.953 74.536 306.689 74.864C306.433 75.192 306.085 75.416 305.645 75.536C306.173 75.64 306.589 75.884 306.893 76.268C307.205 76.652 307.361 77.116 307.361 77.66C307.361 78.14 307.229 78.556 306.965 78.908C306.701 79.26 306.325 79.532 305.837 79.724C305.357 79.908 304.785 80 304.121 80H299.969V71.588H303.965ZM303.845 74.936C304.149 74.936 304.389 74.864 304.565 74.72C304.741 74.568 304.829 74.36 304.829 74.096C304.829 73.832 304.741 73.628 304.565 73.484C304.389 73.34 304.149 73.272 303.845 73.28H302.165V74.936H303.845ZM303.845 78.32C304.229 78.32 304.533 78.24 304.757 78.08C304.981 77.912 305.093 77.684 305.093 77.396C305.093 77.124 304.981 76.908 304.757 76.748C304.533 76.588 304.229 76.512 303.845 76.52H302.165V78.32H303.845ZM313.143 75.356C312.719 75.308 312.347 75.344 312.027 75.464C311.715 75.584 311.471 75.768 311.295 76.016C311.127 76.256 311.043 76.548 311.043 76.892L310.539 76.796C310.539 76.092 310.643 75.488 310.851 74.984C311.067 74.48 311.371 74.096 311.763 73.832C312.155 73.56 312.615 73.424 313.143 73.424V75.356ZM308.919 73.52H311.055V80H308.919V73.52ZM316.659 77.24C316.355 77.24 316.127 77.296 315.975 77.408C315.831 77.512 315.759 77.68 315.759 77.912C315.759 78.144 315.835 78.328 315.987 78.464C316.139 78.592 316.355 78.656 316.635 78.656C316.851 78.656 317.047 78.62 317.223 78.548C317.407 78.476 317.559 78.376 317.679 78.248C317.807 78.112 317.891 77.96 317.931 77.792L318.231 78.74C318.055 79.18 317.775 79.516 317.391 79.748C317.007 79.98 316.535 80.096 315.975 80.096C315.511 80.096 315.111 80.008 314.775 79.832C314.447 79.656 314.195 79.416 314.019 79.112C313.843 78.808 313.755 78.46 313.755 78.068C313.755 77.452 313.967 76.972 314.391 76.628C314.823 76.284 315.439 76.108 316.239 76.1H318.135V77.24H316.659ZM317.931 76.028C317.931 75.716 317.827 75.472 317.619 75.296C317.411 75.12 317.103 75.032 316.695 75.032C316.423 75.032 316.119 75.076 315.783 75.164C315.447 75.252 315.103 75.384 314.751 75.56L314.163 74.144C314.507 73.992 314.839 73.864 315.159 73.76C315.487 73.648 315.819 73.564 316.155 73.508C316.491 73.452 316.835 73.424 317.187 73.424C318.091 73.424 318.787 73.632 319.275 74.048C319.771 74.456 320.023 75.032 320.031 75.776V80H317.931V76.028ZM326.338 76.508C326.338 76.14 326.238 75.848 326.038 75.632C325.838 75.416 325.57 75.308 325.234 75.308C324.834 75.316 324.518 75.46 324.286 75.74C324.062 76.012 323.95 76.364 323.95 76.796H323.446C323.446 76.06 323.554 75.444 323.77 74.948C323.986 74.444 324.29 74.064 324.682 73.808C325.082 73.552 325.558 73.424 326.11 73.424C326.582 73.424 326.994 73.528 327.346 73.736C327.706 73.936 327.982 74.224 328.174 74.6C328.366 74.968 328.462 75.404 328.462 75.908V80H326.338V76.508ZM321.826 73.52H323.962V80H321.826V73.52ZM334.46 75.848C334.316 75.632 334.136 75.468 333.92 75.356C333.712 75.236 333.468 75.176 333.188 75.176C332.932 75.176 332.704 75.244 332.504 75.38C332.312 75.508 332.16 75.692 332.048 75.932C331.944 76.172 331.892 76.452 331.892 76.772C331.892 77.092 331.944 77.372 332.048 77.612C332.16 77.852 332.312 78.04 332.504 78.176C332.704 78.312 332.932 78.38 333.188 78.38C333.476 78.38 333.724 78.32 333.932 78.2C334.148 78.08 334.324 77.892 334.46 77.636L336.032 78.536C335.776 79.024 335.392 79.404 334.88 79.676C334.368 79.94 333.768 80.072 333.08 80.072C332.416 80.072 331.832 79.936 331.328 79.664C330.824 79.392 330.432 79.008 330.152 78.512C329.88 78.016 329.744 77.44 329.744 76.784C329.744 76.112 329.884 75.528 330.164 75.032C330.444 74.528 330.836 74.14 331.34 73.868C331.844 73.588 332.432 73.448 333.104 73.448C333.752 73.448 334.328 73.58 334.832 73.844C335.336 74.1 335.728 74.468 336.008 74.948L334.46 75.848ZM341.942 76.508C341.942 76.14 341.842 75.848 341.642 75.632C341.442 75.416 341.174 75.308 340.838 75.308C340.446 75.316 340.134 75.46 339.902 75.74C339.678 76.012 339.566 76.364 339.566 76.796H339.05C339.05 76.06 339.158 75.444 339.374 74.948C339.59 74.444 339.898 74.064 340.298 73.808C340.698 73.552 341.17 73.424 341.714 73.424C342.194 73.424 342.61 73.528 342.962 73.736C343.314 73.936 343.586 74.224 343.778 74.6C343.978 74.968 344.078 75.404 344.078 75.908V80H341.942V76.508ZM337.43 71.096H339.566V80H337.43V71.096ZM351.413 77.012C351.413 77.38 351.505 77.672 351.689 77.888C351.881 78.104 352.137 78.212 352.457 78.212C352.841 78.204 353.137 78.06 353.345 77.78C353.561 77.5 353.669 77.148 353.669 76.724H354.173C354.173 77.452 354.069 78.068 353.861 78.572C353.653 79.068 353.357 79.444 352.973 79.7C352.589 79.956 352.129 80.084 351.593 80.084C351.129 80.084 350.721 79.984 350.369 79.784C350.025 79.576 349.757 79.288 349.565 78.92C349.373 78.552 349.277 78.116 349.277 77.612V73.52H351.413V77.012ZM353.669 73.52H355.805V80H353.669V73.52ZM362.13 75.536C361.73 75.328 361.354 75.168 361.002 75.056C360.65 74.944 360.338 74.888 360.066 74.888C359.89 74.888 359.742 74.924 359.622 74.996C359.51 75.06 359.454 75.164 359.454 75.308C359.454 75.452 359.534 75.568 359.694 75.656C359.862 75.736 360.074 75.816 360.33 75.896C360.594 75.968 360.87 76.048 361.158 76.136C361.446 76.224 361.718 76.344 361.974 76.496C362.238 76.64 362.45 76.836 362.61 77.084C362.77 77.324 362.85 77.632 362.85 78.008C362.85 78.448 362.73 78.824 362.49 79.136C362.258 79.448 361.934 79.684 361.518 79.844C361.11 80.004 360.638 80.084 360.102 80.084C359.558 80.084 359.034 80.008 358.53 79.856C358.026 79.704 357.574 79.476 357.174 79.172L357.846 77.816C358.222 78.072 358.61 78.272 359.01 78.416C359.41 78.552 359.79 78.62 360.15 78.62C360.286 78.62 360.402 78.604 360.498 78.572C360.602 78.54 360.682 78.496 360.738 78.44C360.802 78.376 360.834 78.296 360.834 78.2C360.834 78.048 360.754 77.928 360.594 77.84C360.434 77.744 360.226 77.664 359.97 77.6C359.714 77.528 359.442 77.448 359.154 77.36C358.866 77.272 358.594 77.156 358.338 77.012C358.09 76.86 357.886 76.664 357.726 76.424C357.566 76.184 357.486 75.876 357.486 75.5C357.486 75.052 357.602 74.676 357.834 74.372C358.074 74.06 358.39 73.824 358.782 73.664C359.182 73.504 359.638 73.424 360.15 73.424C360.622 73.424 361.09 73.488 361.554 73.616C362.018 73.736 362.45 73.92 362.85 74.168L362.13 75.536ZM368.425 76.196C368.433 75.932 368.385 75.708 368.281 75.524C368.185 75.332 368.045 75.184 367.861 75.08C367.677 74.976 367.465 74.924 367.225 74.924C366.945 74.924 366.705 75 366.505 75.152C366.313 75.296 366.161 75.5 366.049 75.764C365.945 76.02 365.893 76.32 365.893 76.664C365.893 77.04 365.957 77.364 366.085 77.636C366.213 77.908 366.393 78.12 366.625 78.272C366.865 78.416 367.141 78.488 367.453 78.488C368.029 78.488 368.537 78.268 368.977 77.828L370.093 78.932C369.765 79.292 369.361 79.572 368.881 79.772C368.409 79.972 367.869 80.072 367.261 80.072C366.557 80.072 365.945 79.936 365.425 79.664C364.913 79.392 364.517 79.008 364.237 78.512C363.965 78.016 363.829 77.44 363.829 76.784C363.829 76.112 363.969 75.528 364.249 75.032C364.529 74.528 364.925 74.14 365.437 73.868C365.949 73.588 366.541 73.448 367.213 73.448C367.973 73.448 368.601 73.608 369.097 73.928C369.601 74.24 369.969 74.688 370.201 75.272C370.441 75.856 370.537 76.54 370.489 77.324H365.593V76.196H368.425ZM376.172 75.356C375.748 75.308 375.376 75.344 375.056 75.464C374.744 75.584 374.5 75.768 374.324 76.016C374.156 76.256 374.072 76.548 374.072 76.892L373.568 76.796C373.568 76.092 373.672 75.488 373.88 74.984C374.096 74.48 374.4 74.096 374.792 73.832C375.184 73.56 375.644 73.424 376.172 73.424V75.356ZM371.948 73.52H374.084V80H371.948V73.52ZM381.796 75.536C381.396 75.328 381.02 75.168 380.668 75.056C380.316 74.944 380.004 74.888 379.732 74.888C379.556 74.888 379.408 74.924 379.288 74.996C379.176 75.06 379.12 75.164 379.12 75.308C379.12 75.452 379.2 75.568 379.36 75.656C379.528 75.736 379.74 75.816 379.996 75.896C380.26 75.968 380.536 76.048 380.824 76.136C381.112 76.224 381.384 76.344 381.64 76.496C381.904 76.64 382.116 76.836 382.276 77.084C382.436 77.324 382.516 77.632 382.516 78.008C382.516 78.448 382.396 78.824 382.156 79.136C381.924 79.448 381.6 79.684 381.184 79.844C380.776 80.004 380.304 80.084 379.768 80.084C379.224 80.084 378.7 80.008 378.196 79.856C377.692 79.704 377.24 79.476 376.84 79.172L377.512 77.816C377.888 78.072 378.276 78.272 378.676 78.416C379.076 78.552 379.456 78.62 379.816 78.62C379.952 78.62 380.068 78.604 380.164 78.572C380.268 78.54 380.348 78.496 380.404 78.44C380.468 78.376 380.5 78.296 380.5 78.2C380.5 78.048 380.42 77.928 380.26 77.84C380.1 77.744 379.892 77.664 379.636 77.6C379.38 77.528 379.108 77.448 378.82 77.36C378.532 77.272 378.26 77.156 378.004 77.012C377.756 76.86 377.552 76.664 377.392 76.424C377.232 76.184 377.152 75.876 377.152 75.5C377.152 75.052 377.268 74.676 377.5 74.372C377.74 74.06 378.056 73.824 378.448 73.664C378.848 73.504 379.304 73.424 379.816 73.424C380.288 73.424 380.756 73.488 381.22 73.616C381.684 73.736 382.116 73.92 382.516 74.168L381.796 75.536Z" fill="#03045E"/>
<g clip-path="url(#clip1_4510_7434)">
<path d="M354.22 61.66H327.64V24.24L354.22 24.24V61.66Z" stroke="#03045E" stroke-linecap="round" stroke-linejoin="round"/>
<path d="M335.82 29.8701H331.57V35.0801H335.82V29.8701Z" stroke="#03045E" stroke-linecap="round" stroke-linejoin="round"/>
<path d="M343.17 29.8701H338.92V35.0801H343.17V29.8701Z" stroke="#03045E" stroke-linecap="round" stroke-linejoin="round"/>
<path d="M350.39 29.8701H346.14V35.0801H350.39V29.8701Z" fill="#59C3C3" stroke="#03045E" stroke-linecap="round" stroke-linejoin="round"/>
<path d="M335.82 39.52H331.57V44.73H335.82V39.52Z" stroke="#03045E" stroke-linecap="round" stroke-linejoin="round"/>
<path d="M343.17 39.52H338.92V44.73H343.17V39.52Z" stroke="#03045E" stroke-linecap="round" stroke-linejoin="round"/>
<path d="M350.39 39.52H346.14V44.73H350.39V39.52Z" stroke="#03045E" stroke-linecap="round" stroke-linejoin="round"/>
<path d="M335.82 49.4099H331.57V54.6199H335.82V49.4099Z" stroke="#03045E" stroke-linecap="round" stroke-linejoin="round"/>
<path d="M343.17 49.4099H338.92V54.6199H343.17V49.4099Z" stroke="#03045E" stroke-linecap="round" stroke-linejoin="round"/>
<path d="M350.39 49.4099H346.14V54.6199H350.39V49.4099Z" stroke="#03045E" stroke-linecap="round" stroke-linejoin="round"/>
</g>
<rect x="207" y="399" width="79" height="35" rx="5" fill="white"/>
<path d="M221.025 412.588H223.221V421H221.025V412.588ZM229.729 417.508C229.729 417.14 229.629 416.848 229.429 416.632C229.229 416.416 228.961 416.308 228.625 416.308C228.225 416.316 227.909 416.46 227.677 416.74C227.453 417.012 227.341 417.364 227.341 417.796H226.837C226.837 417.06 226.945 416.444 227.161 415.948C227.377 415.444 227.681 415.064 228.073 414.808C228.473 414.552 228.949 414.424 229.501 414.424C229.973 414.424 230.385 414.528 230.737 414.736C231.097 414.936 231.373 415.224 231.565 415.6C231.757 415.968 231.853 416.404 231.853 416.908V421H229.729V417.508ZM225.217 414.52H227.353V421H225.217V414.52ZM236.087 418.696C236.087 418.944 236.139 419.124 236.243 419.236C236.347 419.348 236.491 419.4 236.675 419.392C236.787 419.392 236.911 419.372 237.047 419.332C237.183 419.292 237.327 419.24 237.479 419.176L237.887 420.652C237.655 420.796 237.383 420.908 237.071 420.988C236.767 421.06 236.455 421.096 236.135 421.096C235.719 421.096 235.347 421.02 235.019 420.868C234.691 420.708 234.431 420.476 234.239 420.172C234.055 419.86 233.963 419.48 233.963 419.032V413.032H236.087V418.696ZM233.063 414.82H237.767V416.212H233.063V414.82ZM243.294 417.196C243.302 416.932 243.254 416.708 243.15 416.524C243.054 416.332 242.914 416.184 242.73 416.08C242.546 415.976 242.334 415.924 242.094 415.924C241.814 415.924 241.574 416 241.374 416.152C241.182 416.296 241.03 416.5 240.918 416.764C240.814 417.02 240.762 417.32 240.762 417.664C240.762 418.04 240.826 418.364 240.954 418.636C241.082 418.908 241.262 419.12 241.494 419.272C241.734 419.416 242.01 419.488 242.322 419.488C242.898 419.488 243.406 419.268 243.846 418.828L244.962 419.932C244.634 420.292 244.23 420.572 243.75 420.772C243.278 420.972 242.738 421.072 242.13 421.072C241.426 421.072 240.814 420.936 240.294 420.664C239.782 420.392 239.386 420.008 239.106 419.512C238.834 419.016 238.698 418.44 238.698 417.784C238.698 417.112 238.838 416.528 239.118 416.032C239.398 415.528 239.794 415.14 240.306 414.868C240.818 414.588 241.41 414.448 242.082 414.448C242.842 414.448 243.47 414.608 243.966 414.928C244.47 415.24 244.838 415.688 245.07 416.272C245.31 416.856 245.406 417.54 245.358 418.324H240.462V417.196H243.294ZM251.04 416.356C250.616 416.308 250.244 416.344 249.924 416.464C249.612 416.584 249.368 416.768 249.192 417.016C249.024 417.256 248.94 417.548 248.94 417.892L248.436 417.796C248.436 417.092 248.54 416.488 248.748 415.984C248.964 415.48 249.268 415.096 249.66 414.832C250.052 414.56 250.512 414.424 251.04 414.424V416.356ZM246.816 414.52H248.952V421H246.816V414.52ZM256.845 417.508C256.845 417.14 256.745 416.848 256.545 416.632C256.345 416.416 256.077 416.308 255.741 416.308C255.341 416.316 255.025 416.46 254.793 416.74C254.569 417.012 254.457 417.364 254.457 417.796H253.953C253.953 417.06 254.061 416.444 254.277 415.948C254.493 415.444 254.797 415.064 255.189 414.808C255.589 414.552 256.065 414.424 256.617 414.424C257.089 414.424 257.501 414.528 257.853 414.736C258.213 414.936 258.489 415.224 258.681 415.6C258.873 415.968 258.969 416.404 258.969 416.908V421H256.845V417.508ZM252.333 414.52H254.469V421H252.333V414.52ZM264.847 417.196C264.855 416.932 264.807 416.708 264.703 416.524C264.607 416.332 264.467 416.184 264.283 416.08C264.099 415.976 263.887 415.924 263.647 415.924C263.367 415.924 263.127 416 262.927 416.152C262.735 416.296 262.583 416.5 262.471 416.764C262.367 417.02 262.315 417.32 262.315 417.664C262.315 418.04 262.379 418.364 262.507 418.636C262.635 418.908 262.815 419.12 263.047 419.272C263.287 419.416 263.563 419.488 263.875 419.488C264.451 419.488 264.959 419.268 265.399 418.828L266.515 419.932C266.187 420.292 265.783 420.572 265.303 420.772C264.831 420.972 264.291 421.072 263.683 421.072C262.979 421.072 262.367 420.936 261.847 420.664C261.335 420.392 260.939 420.008 260.659 419.512C260.387 419.016 260.251 418.44 260.251 417.784C260.251 417.112 260.391 416.528 260.671 416.032C260.951 415.528 261.347 415.14 261.859 414.868C262.371 414.588 262.963 414.448 263.635 414.448C264.395 414.448 265.023 414.608 265.519 414.928C266.023 415.24 266.391 415.688 266.623 416.272C266.863 416.856 266.959 417.54 266.911 418.324H262.015V417.196H264.847ZM270.793 418.696C270.793 418.944 270.845 419.124 270.949 419.236C271.053 419.348 271.197 419.4 271.381 419.392C271.493 419.392 271.617 419.372 271.753 419.332C271.889 419.292 272.033 419.24 272.185 419.176L272.593 420.652C272.361 420.796 272.089 420.908 271.777 420.988C271.473 421.06 271.161 421.096 270.841 421.096C270.425 421.096 270.053 421.02 269.725 420.868C269.397 420.708 269.137 420.476 268.945 420.172C268.761 419.86 268.669 419.48 268.669 419.032V413.032H270.793V418.696ZM267.769 414.82H272.473V416.212H267.769V414.82Z" fill="#03045E"/>
<rect x="297" y="399" width="98" height="35" rx="5" fill="white"/>
<path d="M313.596 412.588H315.852L319.38 421H317.04L314.664 414.784L312.24 421H309.984L313.596 412.588ZM312.144 417.832H317.052V419.488H312.144V417.832ZM324.605 414.448C325.213 414.448 325.741 414.588 326.189 414.868C326.645 415.14 326.997 415.528 327.245 416.032C327.501 416.528 327.629 417.116 327.629 417.796C327.629 418.444 327.505 419.016 327.257 419.512C327.017 420.008 326.673 420.392 326.225 420.664C325.785 420.936 325.261 421.072 324.653 421.072C324.109 421.072 323.637 420.94 323.237 420.676C322.845 420.404 322.541 420.024 322.325 419.536C322.117 419.04 322.013 418.456 322.013 417.784C322.013 417.096 322.117 416.504 322.325 416.008C322.533 415.504 322.829 415.12 323.213 414.856C323.605 414.584 324.069 414.448 324.605 414.448ZM324.077 416.092C323.813 416.092 323.573 416.164 323.357 416.308C323.149 416.444 322.985 416.636 322.865 416.884C322.753 417.124 322.697 417.408 322.697 417.736C322.697 418.056 322.753 418.344 322.865 418.6C322.985 418.848 323.149 419.04 323.357 419.176C323.573 419.312 323.813 419.38 324.077 419.38C324.357 419.38 324.601 419.312 324.809 419.176C325.025 419.032 325.189 418.836 325.301 418.588C325.421 418.34 325.481 418.056 325.481 417.736C325.481 417.416 325.421 417.132 325.301 416.884C325.189 416.636 325.025 416.444 324.809 416.308C324.601 416.164 324.357 416.092 324.077 416.092ZM320.561 414.52H322.697V423.328H320.561V414.52ZM333.192 414.448C333.8 414.448 334.328 414.588 334.776 414.868C335.232 415.14 335.584 415.528 335.832 416.032C336.088 416.528 336.216 417.116 336.216 417.796C336.216 418.444 336.092 419.016 335.844 419.512C335.604 420.008 335.26 420.392 334.812 420.664C334.372 420.936 333.848 421.072 333.24 421.072C332.696 421.072 332.224 420.94 331.824 420.676C331.432 420.404 331.128 420.024 330.912 419.536C330.704 419.04 330.6 418.456 330.6 417.784C330.6 417.096 330.704 416.504 330.912 416.008C331.12 415.504 331.416 415.12 331.8 414.856C332.192 414.584 332.656 414.448 333.192 414.448ZM332.664 416.092C332.4 416.092 332.16 416.164 331.944 416.308C331.736 416.444 331.572 416.636 331.452 416.884C331.34 417.124 331.284 417.408 331.284 417.736C331.284 418.056 331.34 418.344 331.452 418.6C331.572 418.848 331.736 419.04 331.944 419.176C332.16 419.312 332.4 419.38 332.664 419.38C332.944 419.38 333.188 419.312 333.396 419.176C333.612 419.032 333.776 418.836 333.888 418.588C334.008 418.34 334.068 418.056 334.068 417.736C334.068 417.416 334.008 417.132 333.888 416.884C333.776 416.636 333.612 416.444 333.396 416.308C333.188 416.164 332.944 416.092 332.664 416.092ZM329.148 414.52H331.284V423.328H329.148V414.52ZM337.734 412.096H339.87V421H337.734V412.096ZM341.925 414.52H344.049V421H341.925V414.52ZM342.993 411.544C343.321 411.544 343.589 411.652 343.797 411.868C344.013 412.076 344.121 412.344 344.121 412.672C344.121 412.992 344.013 413.26 343.797 413.476C343.589 413.684 343.321 413.788 342.993 413.788C342.665 413.788 342.393 413.684 342.177 413.476C341.969 413.26 341.865 412.992 341.865 412.672C341.865 412.344 341.969 412.076 342.177 411.868C342.393 411.652 342.665 411.544 342.993 411.544ZM348.447 418.24C348.143 418.24 347.915 418.296 347.763 418.408C347.619 418.512 347.547 418.68 347.547 418.912C347.547 419.144 347.623 419.328 347.775 419.464C347.927 419.592 348.143 419.656 348.423 419.656C348.639 419.656 348.835 419.62 349.011 419.548C349.195 419.476 349.347 419.376 349.467 419.248C349.595 419.112 349.679 418.96 349.719 418.792L350.019 419.74C349.843 420.18 349.563 420.516 349.179 420.748C348.795 420.98 348.323 421.096 347.763 421.096C347.299 421.096 346.899 421.008 346.563 420.832C346.235 420.656 345.983 420.416 345.807 420.112C345.631 419.808 345.543 419.46 345.543 419.068C345.543 418.452 345.755 417.972 346.179 417.628C346.611 417.284 347.227 417.108 348.027 417.1H349.923V418.24H348.447ZM349.719 417.028C349.719 416.716 349.615 416.472 349.407 416.296C349.199 416.12 348.891 416.032 348.483 416.032C348.211 416.032 347.907 416.076 347.571 416.164C347.235 416.252 346.891 416.384 346.539 416.56L345.951 415.144C346.295 414.992 346.627 414.864 346.947 414.76C347.275 414.648 347.607 414.564 347.943 414.508C348.279 414.452 348.623 414.424 348.975 414.424C349.879 414.424 350.575 414.632 351.063 415.048C351.559 415.456 351.811 416.032 351.819 416.776V421H349.719V417.028ZM358.126 417.508C358.126 417.14 358.026 416.848 357.826 416.632C357.626 416.416 357.358 416.308 357.022 416.308C356.622 416.316 356.306 416.46 356.074 416.74C355.85 417.012 355.738 417.364 355.738 417.796H355.234C355.234 417.06 355.342 416.444 355.558 415.948C355.774 415.444 356.078 415.064 356.47 414.808C356.87 414.552 357.346 414.424 357.898 414.424C358.37 414.424 358.782 414.528 359.134 414.736C359.494 414.936 359.77 415.224 359.962 415.6C360.154 415.968 360.25 416.404 360.25 416.908V421H358.126V417.508ZM353.614 414.52H355.75V421H353.614V414.52ZM366.248 416.848C366.104 416.632 365.924 416.468 365.708 416.356C365.5 416.236 365.256 416.176 364.976 416.176C364.72 416.176 364.492 416.244 364.292 416.38C364.1 416.508 363.948 416.692 363.836 416.932C363.732 417.172 363.68 417.452 363.68 417.772C363.68 418.092 363.732 418.372 363.836 418.612C363.948 418.852 364.1 419.04 364.292 419.176C364.492 419.312 364.72 419.38 364.976 419.38C365.264 419.38 365.512 419.32 365.72 419.2C365.936 419.08 366.112 418.892 366.248 418.636L367.82 419.536C367.564 420.024 367.18 420.404 366.668 420.676C366.156 420.94 365.556 421.072 364.868 421.072C364.204 421.072 363.62 420.936 363.116 420.664C362.612 420.392 362.22 420.008 361.94 419.512C361.668 419.016 361.532 418.44 361.532 417.784C361.532 417.112 361.672 416.528 361.952 416.032C362.232 415.528 362.624 415.14 363.128 414.868C363.632 414.588 364.22 414.448 364.892 414.448C365.54 414.448 366.116 414.58 366.62 414.844C367.124 415.1 367.516 415.468 367.796 415.948L366.248 416.848ZM373.05 417.196C373.058 416.932 373.01 416.708 372.906 416.524C372.81 416.332 372.67 416.184 372.486 416.08C372.302 415.976 372.09 415.924 371.85 415.924C371.57 415.924 371.33 416 371.13 416.152C370.938 416.296 370.786 416.5 370.674 416.764C370.57 417.02 370.518 417.32 370.518 417.664C370.518 418.04 370.582 418.364 370.71 418.636C370.838 418.908 371.018 419.12 371.25 419.272C371.49 419.416 371.766 419.488 372.078 419.488C372.654 419.488 373.162 419.268 373.602 418.828L374.718 419.932C374.39 420.292 373.986 420.572 373.506 420.772C373.034 420.972 372.494 421.072 371.886 421.072C371.182 421.072 370.57 420.936 370.05 420.664C369.538 420.392 369.142 420.008 368.862 419.512C368.59 419.016 368.454 418.44 368.454 417.784C368.454 417.112 368.594 416.528 368.874 416.032C369.154 415.528 369.55 415.14 370.062 414.868C370.574 414.588 371.166 414.448 371.838 414.448C372.598 414.448 373.226 414.608 373.722 414.928C374.226 415.24 374.594 415.688 374.826 416.272C375.066 416.856 375.162 417.54 375.114 418.324H370.218V417.196H373.05ZM380.905 416.536C380.505 416.328 380.129 416.168 379.777 416.056C379.425 415.944 379.113 415.888 378.841 415.888C378.665 415.888 378.517 415.924 378.397 415.996C378.285 416.06 378.229 416.164 378.229 416.308C378.229 416.452 378.309 416.568 378.469 416.656C378.637 416.736 378.849 416.816 379.105 416.896C379.369 416.968 379.645 417.048 379.933 417.136C380.221 417.224 380.493 417.344 380.749 417.496C381.013 417.64 381.225 417.836 381.385 418.084C381.545 418.324 381.625 418.632 381.625 419.008C381.625 419.448 381.505 419.824 381.265 420.136C381.033 420.448 380.709 420.684 380.293 420.844C379.885 421.004 379.413 421.084 378.877 421.084C378.333 421.084 377.809 421.008 377.305 420.856C376.801 420.704 376.349 420.476 375.949 420.172L376.621 418.816C376.997 419.072 377.385 419.272 377.785 419.416C378.185 419.552 378.565 419.62 378.925 419.62C379.061 419.62 379.177 419.604 379.273 419.572C379.377 419.54 379.457 419.496 379.513 419.44C379.577 419.376 379.609 419.296 379.609 419.2C379.609 419.048 379.529 418.928 379.369 418.84C379.209 418.744 379.001 418.664 378.745 418.6C378.489 418.528 378.217 418.448 377.929 418.36C377.641 418.272 377.369 418.156 377.113 418.012C376.865 417.86 376.661 417.664 376.501 417.424C376.341 417.184 376.261 416.876 376.261 416.5C376.261 416.052 376.377 415.676 376.609 415.372C376.849 415.06 377.165 414.824 377.557 414.664C377.957 414.504 378.413 414.424 378.925 414.424C379.397 414.424 379.865 414.488 380.329 414.616C380.793 414.736 381.225 414.92 381.625 415.168L380.905 416.536Z" fill="#03045E"/>
<rect x="87" y="399" width="109" height="35" rx="5" fill="white"/>
<path d="M103.99 412.588H106.246L109.774 421H107.434L105.058 414.784L102.634 421H100.378L103.99 412.588ZM102.538 417.832H107.446V419.488H102.538V417.832ZM114.999 414.448C115.607 414.448 116.135 414.588 116.583 414.868C117.039 415.14 117.391 415.528 117.639 416.032C117.895 416.528 118.023 417.116 118.023 417.796C118.023 418.444 117.899 419.016 117.651 419.512C117.411 420.008 117.067 420.392 116.619 420.664C116.179 420.936 115.655 421.072 115.047 421.072C114.503 421.072 114.031 420.94 113.631 420.676C113.239 420.404 112.935 420.024 112.719 419.536C112.511 419.04 112.407 418.456 112.407 417.784C112.407 417.096 112.511 416.504 112.719 416.008C112.927 415.504 113.223 415.12 113.607 414.856C113.999 414.584 114.463 414.448 114.999 414.448ZM114.471 416.092C114.207 416.092 113.967 416.164 113.751 416.308C113.543 416.444 113.379 416.636 113.259 416.884C113.147 417.124 113.091 417.408 113.091 417.736C113.091 418.056 113.147 418.344 113.259 418.6C113.379 418.848 113.543 419.04 113.751 419.176C113.967 419.312 114.207 419.38 114.471 419.38C114.751 419.38 114.995 419.312 115.203 419.176C115.419 419.032 115.583 418.836 115.695 418.588C115.815 418.34 115.875 418.056 115.875 417.736C115.875 417.416 115.815 417.132 115.695 416.884C115.583 416.636 115.419 416.444 115.203 416.308C114.995 416.164 114.751 416.092 114.471 416.092ZM110.955 414.52H113.091V423.328H110.955V414.52ZM123.586 414.448C124.194 414.448 124.722 414.588 125.17 414.868C125.626 415.14 125.978 415.528 126.226 416.032C126.482 416.528 126.61 417.116 126.61 417.796C126.61 418.444 126.486 419.016 126.238 419.512C125.998 420.008 125.654 420.392 125.206 420.664C124.766 420.936 124.242 421.072 123.634 421.072C123.09 421.072 122.618 420.94 122.218 420.676C121.826 420.404 121.522 420.024 121.306 419.536C121.098 419.04 120.994 418.456 120.994 417.784C120.994 417.096 121.098 416.504 121.306 416.008C121.514 415.504 121.81 415.12 122.194 414.856C122.586 414.584 123.05 414.448 123.586 414.448ZM123.058 416.092C122.794 416.092 122.554 416.164 122.338 416.308C122.13 416.444 121.966 416.636 121.846 416.884C121.734 417.124 121.678 417.408 121.678 417.736C121.678 418.056 121.734 418.344 121.846 418.6C121.966 418.848 122.13 419.04 122.338 419.176C122.554 419.312 122.794 419.38 123.058 419.38C123.338 419.38 123.582 419.312 123.79 419.176C124.006 419.032 124.17 418.836 124.282 418.588C124.402 418.34 124.462 418.056 124.462 417.736C124.462 417.416 124.402 417.132 124.282 416.884C124.17 416.636 124.006 416.444 123.79 416.308C123.582 416.164 123.338 416.092 123.058 416.092ZM119.542 414.52H121.678V423.328H119.542V414.52ZM128.128 412.096H130.264V421H128.128V412.096ZM132.319 414.52H134.443V421H132.319V414.52ZM133.387 411.544C133.715 411.544 133.983 411.652 134.191 411.868C134.407 412.076 134.515 412.344 134.515 412.672C134.515 412.992 134.407 413.26 134.191 413.476C133.983 413.684 133.715 413.788 133.387 413.788C133.059 413.788 132.787 413.684 132.571 413.476C132.363 413.26 132.259 412.992 132.259 412.672C132.259 412.344 132.363 412.076 132.571 411.868C132.787 411.652 133.059 411.544 133.387 411.544ZM140.629 416.848C140.485 416.632 140.305 416.468 140.089 416.356C139.881 416.236 139.637 416.176 139.357 416.176C139.101 416.176 138.873 416.244 138.673 416.38C138.481 416.508 138.329 416.692 138.217 416.932C138.113 417.172 138.061 417.452 138.061 417.772C138.061 418.092 138.113 418.372 138.217 418.612C138.329 418.852 138.481 419.04 138.673 419.176C138.873 419.312 139.101 419.38 139.357 419.38C139.645 419.38 139.893 419.32 140.101 419.2C140.317 419.08 140.493 418.892 140.629 418.636L142.201 419.536C141.945 420.024 141.561 420.404 141.049 420.676C140.537 420.94 139.937 421.072 139.249 421.072C138.585 421.072 138.001 420.936 137.497 420.664C136.993 420.392 136.601 420.008 136.321 419.512C136.049 419.016 135.913 418.44 135.913 417.784C135.913 417.112 136.053 416.528 136.333 416.032C136.613 415.528 137.005 415.14 137.509 414.868C138.013 414.588 138.601 414.448 139.273 414.448C139.921 414.448 140.497 414.58 141.001 414.844C141.505 415.1 141.897 415.468 142.177 415.948L140.629 416.848ZM145.834 418.24C145.53 418.24 145.302 418.296 145.15 418.408C145.006 418.512 144.934 418.68 144.934 418.912C144.934 419.144 145.01 419.328 145.162 419.464C145.314 419.592 145.53 419.656 145.81 419.656C146.026 419.656 146.222 419.62 146.398 419.548C146.582 419.476 146.734 419.376 146.854 419.248C146.982 419.112 147.066 418.96 147.106 418.792L147.406 419.74C147.23 420.18 146.95 420.516 146.566 420.748C146.182 420.98 145.71 421.096 145.15 421.096C144.686 421.096 144.286 421.008 143.95 420.832C143.622 420.656 143.37 420.416 143.194 420.112C143.018 419.808 142.93 419.46 142.93 419.068C142.93 418.452 143.142 417.972 143.566 417.628C143.998 417.284 144.614 417.108 145.414 417.1H147.31V418.24H145.834ZM147.106 417.028C147.106 416.716 147.002 416.472 146.794 416.296C146.586 416.12 146.278 416.032 145.87 416.032C145.598 416.032 145.294 416.076 144.958 416.164C144.622 416.252 144.278 416.384 143.926 416.56L143.338 415.144C143.682 414.992 144.014 414.864 144.334 414.76C144.662 414.648 144.994 414.564 145.33 414.508C145.666 414.452 146.01 414.424 146.362 414.424C147.266 414.424 147.962 414.632 148.45 415.048C148.946 415.456 149.198 416.032 149.206 416.776V421H147.106V417.028ZM153.425 418.696C153.425 418.944 153.477 419.124 153.581 419.236C153.685 419.348 153.829 419.4 154.013 419.392C154.125 419.392 154.249 419.372 154.385 419.332C154.521 419.292 154.665 419.24 154.817 419.176L155.225 420.652C154.993 420.796 154.721 420.908 154.409 420.988C154.105 421.06 153.793 421.096 153.473 421.096C153.057 421.096 152.685 421.02 152.357 420.868C152.029 420.708 151.769 420.476 151.577 420.172C151.393 419.86 151.301 419.48 151.301 419.032V413.032H153.425V418.696ZM150.401 414.82H155.105V416.212H150.401V414.82ZM156.599 414.52H158.723V421H156.599V414.52ZM157.667 411.544C157.995 411.544 158.263 411.652 158.471 411.868C158.687 412.076 158.795 412.344 158.795 412.672C158.795 412.992 158.687 413.26 158.471 413.476C158.263 413.684 157.995 413.788 157.667 413.788C157.339 413.788 157.067 413.684 156.851 413.476C156.643 413.26 156.539 412.992 156.539 412.672C156.539 412.344 156.643 412.076 156.851 411.868C157.067 411.652 157.339 411.544 157.667 411.544ZM163.733 414.448C164.445 414.448 165.065 414.584 165.593 414.856C166.129 415.128 166.545 415.512 166.841 416.008C167.137 416.504 167.285 417.084 167.285 417.748C167.285 418.412 167.137 418.996 166.841 419.5C166.545 419.996 166.129 420.384 165.593 420.664C165.065 420.936 164.445 421.072 163.733 421.072C163.021 421.072 162.397 420.936 161.861 420.664C161.333 420.384 160.921 419.996 160.625 419.5C160.337 418.996 160.193 418.412 160.193 417.748C160.193 417.084 160.337 416.504 160.625 416.008C160.921 415.512 161.333 415.128 161.861 414.856C162.397 414.584 163.021 414.448 163.733 414.448ZM163.733 416.14C163.453 416.14 163.209 416.208 163.001 416.344C162.793 416.48 162.629 416.672 162.509 416.92C162.397 417.168 162.341 417.456 162.341 417.784C162.341 418.112 162.397 418.4 162.509 418.648C162.629 418.888 162.793 419.076 163.001 419.212C163.209 419.348 163.453 419.416 163.733 419.416C164.013 419.416 164.257 419.348 164.465 419.212C164.681 419.076 164.845 418.888 164.957 418.648C165.077 418.4 165.137 418.112 165.137 417.784C165.137 417.456 165.077 417.168 164.957 416.92C164.845 416.672 164.681 416.48 164.465 416.344C164.257 416.208 164.013 416.14 163.733 416.14ZM173.245 417.508C173.245 417.14 173.145 416.848 172.945 416.632C172.745 416.416 172.477 416.308 172.141 416.308C171.741 416.316 171.425 416.46 171.193 416.74C170.969 417.012 170.857 417.364 170.857 417.796H170.353C170.353 417.06 170.461 416.444 170.677 415.948C170.893 415.444 171.197 415.064 171.589 414.808C171.989 414.552 172.465 414.424 173.017 414.424C173.489 414.424 173.901 414.528 174.253 414.736C174.613 414.936 174.889 415.224 175.081 415.6C175.273 415.968 175.369 416.404 175.369 416.908V421H173.245V417.508ZM168.733 414.52H170.869V421H168.733V414.52ZM181.511 416.536C181.111 416.328 180.735 416.168 180.383 416.056C180.031 415.944 179.719 415.888 179.447 415.888C179.271 415.888 179.123 415.924 179.003 415.996C178.891 416.06 178.835 416.164 178.835 416.308C178.835 416.452 178.915 416.568 179.075 416.656C179.243 416.736 179.455 416.816 179.711 416.896C179.975 416.968 180.251 417.048 180.539 417.136C180.827 417.224 181.099 417.344 181.355 417.496C181.619 417.64 181.831 417.836 181.991 418.084C182.151 418.324 182.231 418.632 182.231 419.008C182.231 419.448 182.111 419.824 181.871 420.136C181.639 420.448 181.315 420.684 180.899 420.844C180.491 421.004 180.019 421.084 179.483 421.084C178.939 421.084 178.415 421.008 177.911 420.856C177.407 420.704 176.955 420.476 176.555 420.172L177.227 418.816C177.603 419.072 177.991 419.272 178.391 419.416C178.791 419.552 179.171 419.62 179.531 419.62C179.667 419.62 179.783 419.604 179.879 419.572C179.983 419.54 180.063 419.496 180.119 419.44C180.183 419.376 180.215 419.296 180.215 419.2C180.215 419.048 180.135 418.928 179.975 418.84C179.815 418.744 179.607 418.664 179.351 418.6C179.095 418.528 178.823 418.448 178.535 418.36C178.247 418.272 177.975 418.156 177.719 418.012C177.471 417.86 177.267 417.664 177.107 417.424C176.947 417.184 176.867 416.876 176.867 416.5C176.867 416.052 176.983 415.676 177.215 415.372C177.455 415.06 177.771 414.824 178.163 414.664C178.563 414.504 179.019 414.424 179.531 414.424C180.003 414.424 180.471 414.488 180.935 414.616C181.399 414.736 181.831 414.92 182.231 415.168L181.511 416.536Z" fill="#03045E"/>
<rect x="2" y="399" width="74" height="35" rx="5" fill="white"/>
<path d="M21.6746 415.096C21.3786 414.912 21.0626 414.756 20.7266 414.628C20.3986 414.492 20.0786 414.388 19.7666 414.316C19.4626 414.236 19.1946 414.196 18.9626 414.196C18.6986 414.196 18.4866 414.248 18.3266 414.352C18.1666 414.448 18.0866 414.6 18.0866 414.808C18.0866 415.016 18.1626 415.188 18.3146 415.324C18.4746 415.452 18.6866 415.56 18.9506 415.648C19.2146 415.736 19.5066 415.824 19.8266 415.912C20.1466 416 20.4626 416.104 20.7746 416.224C21.0866 416.344 21.3746 416.5 21.6386 416.692C21.9026 416.876 22.1146 417.116 22.2746 417.412C22.4346 417.708 22.5146 418.076 22.5146 418.516C22.5146 419.084 22.3626 419.564 22.0586 419.956C21.7546 420.34 21.3466 420.632 20.8346 420.832C20.3226 421.024 19.7546 421.12 19.1306 421.12C18.6586 421.12 18.1866 421.068 17.7146 420.964C17.2506 420.852 16.8066 420.696 16.3826 420.496C15.9666 420.288 15.5906 420.044 15.2546 419.764L16.1066 418.072C16.3946 418.328 16.7186 418.552 17.0786 418.744C17.4386 418.936 17.8026 419.088 18.1706 419.2C18.5386 419.304 18.8666 419.356 19.1546 419.356C19.4826 419.356 19.7386 419.296 19.9226 419.176C20.1146 419.048 20.2106 418.864 20.2106 418.624C20.2106 418.416 20.1306 418.248 19.9706 418.12C19.8106 417.984 19.5986 417.872 19.3346 417.784C19.0706 417.696 18.7786 417.612 18.4586 417.532C18.1466 417.444 17.8306 417.344 17.5106 417.232C17.1986 417.112 16.9106 416.964 16.6466 416.788C16.3826 416.604 16.1706 416.368 16.0106 416.08C15.8586 415.792 15.7826 415.432 15.7826 415C15.7826 414.48 15.9186 414.028 16.1906 413.644C16.4706 413.252 16.8626 412.952 17.3666 412.744C17.8786 412.528 18.4706 412.42 19.1426 412.42C19.7586 412.42 20.3626 412.508 20.9546 412.684C21.5466 412.86 22.0626 413.088 22.5026 413.368L21.6746 415.096ZM28.0644 417.196C28.0724 416.932 28.0244 416.708 27.9204 416.524C27.8244 416.332 27.6844 416.184 27.5004 416.08C27.3164 415.976 27.1044 415.924 26.8644 415.924C26.5844 415.924 26.3444 416 26.1444 416.152C25.9524 416.296 25.8004 416.5 25.6884 416.764C25.5844 417.02 25.5324 417.32 25.5324 417.664C25.5324 418.04 25.5964 418.364 25.7244 418.636C25.8524 418.908 26.0324 419.12 26.2644 419.272C26.5044 419.416 26.7804 419.488 27.0924 419.488C27.6684 419.488 28.1764 419.268 28.6164 418.828L29.7324 419.932C29.4044 420.292 29.0004 420.572 28.5204 420.772C28.0484 420.972 27.5084 421.072 26.9004 421.072C26.1964 421.072 25.5844 420.936 25.0644 420.664C24.5524 420.392 24.1564 420.008 23.8764 419.512C23.6044 419.016 23.4684 418.44 23.4684 417.784C23.4684 417.112 23.6084 416.528 23.8884 416.032C24.1684 415.528 24.5644 415.14 25.0764 414.868C25.5884 414.588 26.1804 414.448 26.8524 414.448C27.6124 414.448 28.2404 414.608 28.7364 414.928C29.2404 415.24 29.6084 415.688 29.8404 416.272C30.0804 416.856 30.1764 417.54 30.1284 418.324H25.2324V417.196H28.0644ZM35.8109 416.356C35.3869 416.308 35.0149 416.344 34.6949 416.464C34.3829 416.584 34.1389 416.768 33.9629 417.016C33.7949 417.256 33.7109 417.548 33.7109 417.892L33.2069 417.796C33.2069 417.092 33.3109 416.488 33.5189 415.984C33.7349 415.48 34.0389 415.096 34.4309 414.832C34.8229 414.56 35.2829 414.424 35.8109 414.424V416.356ZM31.5869 414.52H33.7229V421H31.5869V414.52ZM36.5084 414.52H38.7044L40.0604 419.056L41.4284 414.52H43.5644L41.1284 421H38.9324L36.5084 414.52ZM48.5155 417.196C48.5235 416.932 48.4755 416.708 48.3715 416.524C48.2755 416.332 48.1355 416.184 47.9515 416.08C47.7675 415.976 47.5555 415.924 47.3155 415.924C47.0355 415.924 46.7955 416 46.5955 416.152C46.4035 416.296 46.2515 416.5 46.1395 416.764C46.0355 417.02 45.9835 417.32 45.9835 417.664C45.9835 418.04 46.0475 418.364 46.1755 418.636C46.3035 418.908 46.4835 419.12 46.7155 419.272C46.9555 419.416 47.2315 419.488 47.5435 419.488C48.1195 419.488 48.6275 419.268 49.0675 418.828L50.1835 419.932C49.8555 420.292 49.4515 420.572 48.9715 420.772C48.4995 420.972 47.9595 421.072 47.3515 421.072C46.6475 421.072 46.0355 420.936 45.5155 420.664C45.0035 420.392 44.6075 420.008 44.3275 419.512C44.0555 419.016 43.9195 418.44 43.9195 417.784C43.9195 417.112 44.0595 416.528 44.3395 416.032C44.6195 415.528 45.0155 415.14 45.5275 414.868C46.0395 414.588 46.6315 414.448 47.3035 414.448C48.0635 414.448 48.6915 414.608 49.1875 414.928C49.6915 415.24 50.0595 415.688 50.2915 416.272C50.5315 416.856 50.6275 417.54 50.5795 418.324H45.6835V417.196H48.5155ZM56.262 416.356C55.838 416.308 55.466 416.344 55.146 416.464C54.834 416.584 54.59 416.768 54.414 417.016C54.246 417.256 54.162 417.548 54.162 417.892L53.658 417.796C53.658 417.092 53.762 416.488 53.97 415.984C54.186 415.48 54.49 415.096 54.882 414.832C55.274 414.56 55.734 414.424 56.262 414.424V416.356ZM52.038 414.52H54.174V421H52.038V414.52ZM61.8862 416.536C61.4862 416.328 61.1102 416.168 60.7582 416.056C60.4062 415.944 60.0942 415.888 59.8222 415.888C59.6462 415.888 59.4982 415.924 59.3782 415.996C59.2662 416.06 59.2102 416.164 59.2102 416.308C59.2102 416.452 59.2902 416.568 59.4502 416.656C59.6182 416.736 59.8302 416.816 60.0862 416.896C60.3502 416.968 60.6262 417.048 60.9142 417.136C61.2022 417.224 61.4742 417.344 61.7302 417.496C61.9942 417.64 62.2062 417.836 62.3662 418.084C62.5262 418.324 62.6062 418.632 62.6062 419.008C62.6062 419.448 62.4862 419.824 62.2462 420.136C62.0142 420.448 61.6902 420.684 61.2742 420.844C60.8662 421.004 60.3942 421.084 59.8582 421.084C59.3142 421.084 58.7902 421.008 58.2862 420.856C57.7822 420.704 57.3302 420.476 56.9302 420.172L57.6022 418.816C57.9782 419.072 58.3662 419.272 58.7662 419.416C59.1662 419.552 59.5462 419.62 59.9062 419.62C60.0422 419.62 60.1582 419.604 60.2542 419.572C60.3582 419.54 60.4382 419.496 60.4942 419.44C60.5582 419.376 60.5902 419.296 60.5902 419.2C60.5902 419.048 60.5102 418.928 60.3502 418.84C60.1902 418.744 59.9822 418.664 59.7262 418.6C59.4702 418.528 59.1982 418.448 58.9102 418.36C58.6222 418.272 58.3502 418.156 58.0942 418.012C57.8462 417.86 57.6422 417.664 57.4822 417.424C57.3222 417.184 57.2422 416.876 57.2422 416.5C57.2422 416.052 57.3582 415.676 57.5902 415.372C57.8302 415.06 58.1462 414.824 58.5382 414.664C58.9382 414.504 59.3942 414.424 59.9062 414.424C60.3782 414.424 60.8462 414.488 61.3102 414.616C61.7742 414.736 62.2062 414.92 62.6062 415.168L61.8862 416.536Z" fill="#03045E"/>
<path d="M27 376.058C27 373.82 32.5529 372 39.3913 372C46.2298 372 51.7826 373.82 51.7826 376.058C51.7826 378.296 46.2298 380.124 39.3913 380.124C32.5529 380.124 27 378.304 27 376.058Z" fill="white"/>
<path d="M27.5344 383.624C29.0833 385.289 33.8152 386.49 39.3913 386.49C44.9674 386.49 49.6916 385.289 51.2482 383.624C51.5714 383.933 51.7628 384.355 51.7826 384.801C51.7826 387.04 46.2298 388.86 39.3913 388.86C32.5529 388.86 27 387.04 27 384.801C27.0074 384.58 27.0584 384.362 27.1501 384.16C27.2417 383.958 27.3723 383.776 27.5344 383.624Z" fill="white"/>
<path d="M27.5185 392.345C29.0674 394.01 33.7838 395.234 39.3909 395.234C44.9979 395.234 49.7221 394.018 51.2633 392.353C51.5813 392.658 51.7698 393.074 51.7899 393.514C51.7899 395.76 46.2371 397.573 39.3986 397.573C32.5602 397.573 27.0073 395.76 27.0073 393.514C27.0229 393.074 27.2057 392.656 27.5185 392.345Z" fill="white"/>
<path d="M27 376.058C27 378.304 32.5529 380.124 39.3913 380.124C46.2298 380.124 51.7826 378.304 51.7826 376.058C51.7826 373.812 46.2298 372 39.3913 372C32.5529 372 27 373.82 27 376.058Z" stroke="#03045E" stroke-miterlimit="10"/>
<path d="M27 376.058V382.432C27.0219 382.884 27.2158 383.311 27.5421 383.625C29.091 385.29 33.823 386.49 39.399 386.49C44.9751 386.49 49.6993 385.29 51.256 383.625C51.5823 383.311 51.7762 382.884 51.7981 382.432V376.058" stroke="#03045E" stroke-miterlimit="10"/>
<path d="M27.5654 383.586V383.624C27.3977 383.773 27.2613 383.954 27.1643 384.156C27.0672 384.358 27.0113 384.578 27 384.802C27 387.04 32.5529 388.86 39.3913 388.86C46.2298 388.86 51.7826 387.04 51.7826 384.802C51.7608 384.354 51.5665 383.932 51.2405 383.624L51.1785 383.555" stroke="#03045E" stroke-miterlimit="10"/>
<path d="M27 384.802V391.176C27.0213 391.618 27.2094 392.036 27.5266 392.345C29.0755 394.01 33.792 395.234 39.399 395.234C45.0061 395.234 49.7303 394.018 51.2715 392.353C51.5847 392.039 51.7674 391.618 51.7826 391.176V384.802" stroke="#03045E" stroke-miterlimit="10"/>
<path d="M27.5266 392.337C27.2063 392.647 27.0178 393.069 27 393.514C27 395.76 32.5529 397.572 39.3913 397.572C46.2298 397.572 51.7826 395.76 51.7826 393.514C51.7625 393.074 51.574 392.658 51.256 392.353V392.306" stroke="#03045E" stroke-miterlimit="10"/>
<path d="M27 393.514V399.888C27 402.126 32.5529 403.946 39.3913 403.946C46.2298 403.946 51.7826 402.126 51.7826 399.888V393.514" stroke="#03045E" stroke-miterlimit="10"/>
<path d="M39.3989 384.05C39.8009 384.05 40.1269 383.725 40.1269 383.322C40.1269 382.92 39.8009 382.594 39.3989 382.594C38.9968 382.594 38.6709 382.92 38.6709 383.322C38.6709 383.725 38.9968 384.05 39.3989 384.05Z" fill="#59C3C3"/>
<path d="M37.2539 384.05C37.6559 384.05 37.9819 383.725 37.9819 383.322C37.9819 382.92 37.6559 382.594 37.2539 382.594C36.8518 382.594 36.5259 382.92 36.5259 383.322C36.5259 383.725 36.8518 384.05 37.2539 384.05Z" fill="#59C3C3"/>
<path d="M41.5444 384.05C41.9465 384.05 42.2724 383.725 42.2724 383.322C42.2724 382.92 41.9465 382.594 41.5444 382.594C41.1423 382.594 40.8164 382.92 40.8164 383.322C40.8164 383.725 41.1423 384.05 41.5444 384.05Z" fill="#59C3C3"/>
<path d="M39.3989 392.686C39.8009 392.686 40.1269 392.36 40.1269 391.958C40.1269 391.556 39.8009 391.23 39.3989 391.23C38.9968 391.23 38.6709 391.556 38.6709 391.958C38.6709 392.36 38.9968 392.686 39.3989 392.686Z" fill="#59C3C3"/>
<path d="M37.2539 392.686C37.6559 392.686 37.9819 392.36 37.9819 391.958C37.9819 391.556 37.6559 391.23 37.2539 391.23C36.8518 391.23 36.5259 391.556 36.5259 391.958C36.5259 392.36 36.8518 392.686 37.2539 392.686Z" fill="#59C3C3"/>
<path d="M41.5444 392.686C41.9465 392.686 42.2724 392.36 42.2724 391.958C42.2724 391.556 41.9465 391.23 41.5444 391.23C41.1423 391.23 40.8164 391.556 40.8164 391.958C40.8164 392.36 41.1423 392.686 41.5444 392.686Z" fill="#59C3C3"/>
<path d="M39.3989 401.631C39.8009 401.631 40.1269 401.305 40.1269 400.903C40.1269 400.5 39.8009 400.175 39.3989 400.175C38.9968 400.175 38.6709 400.5 38.6709 400.903C38.6709 401.305 38.9968 401.631 39.3989 401.631Z" fill="#59C3C3"/>
<path d="M37.2539 401.631C37.6559 401.631 37.9819 401.305 37.9819 400.903C37.9819 400.5 37.6559 400.175 37.2539 400.175C36.8518 400.175 36.5259 400.5 36.5259 400.903C36.5259 401.305 36.8518 401.631 37.2539 401.631Z" fill="#59C3C3"/>
<path d="M41.5444 401.631C41.9465 401.631 42.2724 401.305 42.2724 400.903C42.2724 400.5 41.9465 400.175 41.5444 400.175C41.1423 400.175 40.8164 400.5 40.8164 400.903C40.8164 401.305 41.1423 401.631 41.5444 401.631Z" fill="#59C3C3"/>
<path d="M246.472 404.317C250.859 404.317 254.415 400.76 254.415 396.373C254.415 391.986 250.859 388.43 246.472 388.43C242.085 388.43 238.528 391.986 238.528 396.373C238.528 400.76 242.085 404.317 246.472 404.317Z" fill="#59C3C3" stroke="white" stroke-linecap="round" stroke-linejoin="round"/>
<path d="M246.381 404.395C251.376 404.395 255.426 400.345 255.426 395.349C255.426 390.353 251.376 386.303 246.381 386.303C241.385 386.303 237.335 390.353 237.335 395.349C237.335 400.345 241.385 404.395 246.381 404.395Z" stroke="#03045E" stroke-linecap="round" stroke-linejoin="round"/>
<path d="M246.381 404.395C249.273 404.395 251.617 400.345 251.617 395.349C251.617 390.353 249.273 386.303 246.381 386.303C243.488 386.303 241.144 390.353 241.144 395.349C241.144 400.345 243.488 404.395 246.381 404.395Z" stroke="#03045E" stroke-linecap="round" stroke-linejoin="round"/>
<path d="M246.381 386.369V404.33" stroke="#03045E" stroke-linecap="round" stroke-linejoin="round"/>
<path d="M255.361 395.349H237.4" stroke="#03045E" stroke-linecap="round" stroke-linejoin="round"/>
<path d="M254.069 390.562H238.698" stroke="#03045E" stroke-linecap="round" stroke-linejoin="round"/>
<path d="M254.069 399.791H238.698" stroke="#03045E" stroke-linecap="round" stroke-linejoin="round"/>
<path d="M233.983 395.31C232.633 394.712 231.518 393.685 230.813 392.388C230.108 391.091 229.851 389.597 230.083 388.139C230.316 386.681 231.023 385.34 232.097 384.327C233.17 383.313 234.549 382.683 236.018 382.534" stroke="#03045E" stroke-linecap="round" stroke-linejoin="round"/>
<path d="M250.763 383.571C251.374 382.758 252.162 382.096 253.068 381.633C253.973 381.171 254.972 380.922 255.989 380.904C257.005 380.886 258.012 381.1 258.934 381.53C259.855 381.96 260.666 382.594 261.305 383.384C261.944 384.175 262.395 385.101 262.622 386.092C262.85 387.083 262.848 388.112 262.618 389.102C262.387 390.093 261.934 391.017 261.292 391.806C260.651 392.595 259.838 393.226 258.915 393.654" stroke="#03045E" stroke-linecap="round" stroke-linejoin="round"/>
<path d="M236.024 382.534C236.506 380.522 237.611 378.714 239.182 377.367C240.752 376.02 242.708 375.203 244.769 375.033C246.831 374.863 248.894 375.349 250.664 376.421C252.434 377.492 253.82 379.096 254.624 381.002" stroke="#03045E" stroke-linecap="round" stroke-linejoin="round"/>
<path d="M337.826 384.739V376.609C337.826 376.056 338.274 375.609 338.826 375.609H352.478C353.031 375.609 353.478 376.056 353.478 376.609V384.739" stroke="#111279" stroke-linecap="round" stroke-linejoin="round"/>
<path d="M337.826 396.478H335.218C334.526 396.478 333.862 396.203 333.373 395.714C332.884 395.225 332.609 394.561 332.609 393.869V387.348C332.609 386.656 332.884 385.992 333.373 385.503C333.862 385.014 334.526 384.739 335.218 384.739H356.087C356.779 384.739 357.443 385.014 357.932 385.503C358.421 385.992 358.696 386.656 358.696 387.348V393.869C358.696 394.561 358.421 395.225 357.932 395.714C357.443 396.203 356.779 396.478 356.087 396.478H353.478" stroke="#111279" stroke-linecap="round" stroke-linejoin="round"/>
<path d="M352.478 391.261H338.826C338.274 391.261 337.826 391.709 337.826 392.261V400.696C337.826 401.248 338.274 401.696 338.826 401.696H352.478C353.031 401.696 353.478 401.248 353.478 400.696V392.261C353.478 391.709 353.031 391.261 352.478 391.261Z" fill="#59C3C3" stroke="#111279" stroke-linecap="round" stroke-linejoin="round"/>
<g clip-path="url(#clip2_4510_7434)">
<path d="M124.841 375.436H157.551C157.781 375.436 158.001 375.528 158.164 375.691C158.326 375.855 158.418 376.077 158.418 376.308V399.798H123.974V376.308C123.974 376.077 124.065 375.855 124.228 375.691C124.39 375.528 124.611 375.436 124.841 375.436Z" stroke="#03045E" stroke-linecap="round" stroke-linejoin="round"/>
<path d="M121.434 399.798H161.001V402.414C161.001 402.645 160.91 402.867 160.747 403.03C160.585 403.194 160.364 403.286 160.134 403.286H122.301C122.071 403.286 121.85 403.194 121.688 403.03C121.525 402.867 121.434 402.645 121.434 402.414V399.798Z" stroke="#03045E" stroke-linecap="round" stroke-linejoin="round"/>
<path d="M155.132 378.026H127.268V386.553H155.132V378.026Z" fill="#59C3C3" stroke="#59C3C3" stroke-linecap="round" stroke-linejoin="round"/>
<path d="M155.132 388.681H127.268V397.209H155.132V388.681Z" fill="white" stroke="white" stroke-linecap="round" stroke-linejoin="round"/>
<path d="M143.853 391.515L143.073 392.299L141.243 390.459L140.004 392.439L137.143 384.67L137.16 384.652L144.893 387.521L142.925 388.777L144.754 390.616L143.966 391.401" fill="white"/>
<path d="M143.853 391.515L143.073 392.299L141.243 390.459L140.004 392.439L137.143 384.67L137.16 384.652L144.893 387.521L142.925 388.777L144.754 390.616L143.966 391.401" stroke="#03045E" stroke-linecap="round" stroke-linejoin="round"/>
</g>
<defs>
<clipPath id="clip0_4510_7434">
<rect width="45.96" height="44.16" fill="white" transform="translate(175 19)"/>
</clipPath>
<clipPath id="clip1_4510_7434">
<rect width="45.96" height="44.16" fill="white" transform="translate(318 18)"/>
</clipPath>
<clipPath id="clip2_4510_7434">
<rect width="40.4348" height="28.6957" fill="white" transform="translate(121 375)"/>
</clipPath>
</defs>
</svg>
